<mxfile host="65bd71144e">
    <diagram id="9XCSC3eeRRchGNVlfb5L" name="Page-1">
        <mxGraphModel dx="4023" dy="935" grid="0" gridSize="10" guides="0" tooltips="1" connect="1" arrows="1" fold="1" page="0" pageScale="1" pageWidth="850" pageHeight="1100" math="0" shadow="0">
            <root>
                <mxCell id="0"/>
                <mxCell id="1" parent="0"/>
                <mxCell id="ejB2oqNJLONClBfcNZHo-26" style="edgeStyle=orthogonalEdgeStyle;rounded=0;orthogonalLoop=1;jettySize=auto;html=1;entryX=0;entryY=0.5;entryDx=0;entryDy=0;" parent="1" source="ejB2oqNJLONClBfcNZHo-17" target="ejB2oqNJLONClBfcNZHo-7" edge="1">
                    <mxGeometry relative="1" as="geometry"/>
                </mxCell>
                <mxCell id="ejB2oqNJLONClBfcNZHo-27" value="IP filter&lt;br&gt;Certificate - MTLS&lt;br&gt;Basic http key" style="edgeLabel;html=1;align=center;verticalAlign=middle;resizable=0;points=[];" parent="ejB2oqNJLONClBfcNZHo-26" vertex="1" connectable="0">
                    <mxGeometry x="0.2028" relative="1" as="geometry">
                        <mxPoint as="offset"/>
                    </mxGeometry>
                </mxCell>
                <mxCell id="23" style="edgeStyle=orthogonalEdgeStyle;rounded=0;orthogonalLoop=1;jettySize=auto;html=1;entryX=0.184;entryY=-0.011;entryDx=0;entryDy=0;entryPerimeter=0;" parent="1" source="ejB2oqNJLONClBfcNZHo-17" target="ejB2oqNJLONClBfcNZHo-14" edge="1">
                    <mxGeometry relative="1" as="geometry"/>
                </mxCell>
                <mxCell id="38" style="edgeStyle=orthogonalEdgeStyle;rounded=0;orthogonalLoop=1;jettySize=auto;html=1;entryX=0.75;entryY=0;entryDx=0;entryDy=0;" parent="1" source="ejB2oqNJLONClBfcNZHo-17" target="32" edge="1">
                    <mxGeometry relative="1" as="geometry"/>
                </mxCell>
                <mxCell id="ejB2oqNJLONClBfcNZHo-17" value="&lt;br&gt;&lt;br&gt;&lt;br&gt;&lt;br&gt;&lt;br&gt;&lt;br&gt;&lt;br&gt;&lt;br&gt;&lt;br&gt;&lt;br&gt;&lt;br&gt;&lt;br&gt;&lt;br&gt;&lt;br&gt;&lt;br&gt;&lt;br&gt;&lt;br&gt;&lt;br&gt;" style="rounded=1;whiteSpace=wrap;html=1;" parent="1" vertex="1">
                    <mxGeometry x="-1120" y="220" width="327" height="560" as="geometry"/>
                </mxCell>
                <mxCell id="12" style="edgeStyle=orthogonalEdgeStyle;rounded=0;orthogonalLoop=1;jettySize=auto;html=1;entryX=0.81;entryY=-0.006;entryDx=0;entryDy=0;entryPerimeter=0;" parent="1" source="ejB2oqNJLONClBfcNZHo-7" target="ejB2oqNJLONClBfcNZHo-14" edge="1">
                    <mxGeometry relative="1" as="geometry"/>
                </mxCell>
                <mxCell id="13" value="Express Route" style="edgeLabel;html=1;align=center;verticalAlign=middle;resizable=0;points=[];" parent="12" vertex="1" connectable="0">
                    <mxGeometry x="-0.1911" relative="1" as="geometry">
                        <mxPoint y="1" as="offset"/>
                    </mxGeometry>
                </mxCell>
                <mxCell id="ejB2oqNJLONClBfcNZHo-7" value="&lt;br&gt;&lt;br&gt;&lt;br&gt;&lt;br&gt;&lt;br&gt;&lt;br&gt;&lt;br&gt;&lt;br&gt;&lt;br&gt;&lt;br&gt;&lt;br&gt;&lt;br&gt;&lt;br&gt;&lt;br&gt;&lt;br&gt;&lt;br&gt;&lt;br&gt;&lt;br&gt;" style="rounded=1;whiteSpace=wrap;html=1;" parent="1" vertex="1">
                    <mxGeometry x="-380" y="230" width="300" height="560" as="geometry"/>
                </mxCell>
                <mxCell id="ejB2oqNJLONClBfcNZHo-1" value="APIM ADS&lt;br&gt;&lt;br&gt;- What apis?&amp;nbsp; &amp;nbsp;&lt;br&gt;- What deployment options?&amp;nbsp;&amp;nbsp;&lt;br&gt;- What tier of apim?&amp;nbsp;&amp;nbsp;&lt;br&gt;- What security?&amp;nbsp;&lt;br&gt;- What consumers?&amp;nbsp;&amp;nbsp;&lt;br&gt;- What products are we going to define?&amp;nbsp;" style="text;html=1;resizable=0;autosize=1;align=center;verticalAlign=middle;points=[];fillColor=none;strokeColor=none;rounded=0;" parent="1" vertex="1">
                    <mxGeometry x="-1503" y="8" width="226" height="115" as="geometry"/>
                </mxCell>
                <mxCell id="ejB2oqNJLONClBfcNZHo-2" value="" style="shape=image;verticalLabelPosition=bottom;verticalAlign=top;imageAspect=0;aspect=fixed;image=data:image/svg+xml,PHN2ZyB4bWxuczpkYz0iaHR0cDovL3B1cmwub3JnL2RjL2VsZW1lbnRzLzEuMS8iIHhtbG5zOmNjPSJodHRwOi8vY3JlYXRpdmVjb21tb25zLm9yZy9ucyMiIHhtbG5zOnJkZj0iaHR0cDovL3d3dy53My5vcmcvMTk5OS8wMi8yMi1yZGYtc3ludGF4LW5zIyIgeG1sbnM6c3ZnPSJodHRwOi8vd3d3LnczLm9yZy8yMDAwL3N2ZyIgeG1sbnM9Imh0dHA6Ly93d3cudzMub3JnLzIwMDAvc3ZnIiB4bWxuczpzb2RpcG9kaT0iaHR0cDovL3NvZGlwb2RpLnNvdXJjZWZvcmdlLm5ldC9EVEQvc29kaXBvZGktMC5kdGQiIHhtbG5zOmlua3NjYXBlPSJodHRwOi8vd3d3Lmlua3NjYXBlLm9yZy9uYW1lc3BhY2VzL2lua3NjYXBlIiB3aWR0aD0iNTAiIGhlaWdodD0iNTAiIHZlcnNpb249IjEuMSIgaWQ9InN2ZzYiIHNvZGlwb2RpOmRvY25hbWU9IkFQSSBNYW5hZ2VtZW50IFNlcnZpY2VzLnN2ZyIgaW5rc2NhcGU6dmVyc2lvbj0iMC45Mi4zICgyNDA1NTQ2LCAyMDE4LTAzLTExKSIgdmlld0JveD0iMCAwIDUwIDUwIj4mI3hhOyAgPG1ldGFkYXRhIGlkPSJtZXRhZGF0YTEyIj4mI3hhOyAgICA8cmRmOlJERj4mI3hhOyAgICAgIDxjYzpXb3JrIHJkZjphYm91dD0iIj4mI3hhOyAgICAgICAgPGRjOmZvcm1hdD5pbWFnZS9zdmcreG1sPC9kYzpmb3JtYXQ+JiN4YTsgICAgICAgIDxkYzp0eXBlIHJkZjpyZXNvdXJjZT0iaHR0cDovL3B1cmwub3JnL2RjL2RjbWl0eXBlL1N0aWxsSW1hZ2UiLz4mI3hhOyAgICAgICAgPGRjOnRpdGxlLz4mI3hhOyAgICAgIDwvY2M6V29yaz4mI3hhOyAgICA8L3JkZjpSREY+JiN4YTsgIDwvbWV0YWRhdGE+JiN4YTsgIDxkZWZzIGlkPSJkZWZzMTAiLz4mI3hhOyAgPHNvZGlwb2RpOm5hbWVkdmlldyBwYWdlY29sb3I9IiNmZmZmZmYiIGJvcmRlcmNvbG9yPSIjNjY2NjY2IiBib3JkZXJvcGFjaXR5PSIxIiBvYmplY3R0b2xlcmFuY2U9IjEwIiBncmlkdG9sZXJhbmNlPSIxMCIgZ3VpZGV0b2xlcmFuY2U9IjEwIiBpbmtzY2FwZTpwYWdlb3BhY2l0eT0iMCIgaW5rc2NhcGU6cGFnZXNoYWRvdz0iMiIgaW5rc2NhcGU6d2luZG93LXdpZHRoPSI2NDAiIGlua3NjYXBlOndpbmRvdy1oZWlnaHQ9IjQ4MCIgaWQ9Im5hbWVkdmlldzgiIHNob3dncmlkPSJmYWxzZSIgaW5rc2NhcGU6em9vbT0iNC43MiIgaW5rc2NhcGU6Y3g9IjI1IiBpbmtzY2FwZTpjeT0iMjUiIGlua3NjYXBlOndpbmRvdy14PSIwIiBpbmtzY2FwZTp3aW5kb3cteT0iMCIgaW5rc2NhcGU6d2luZG93LW1heGltaXplZD0iMCIgaW5rc2NhcGU6Y3VycmVudC1sYXllcj0ic3ZnNiIvPiYjeGE7ICA8cGF0aCBmaWxsPSIjNTlCNEQ5IiBkPSJNMjAuNSAzMi41aC04LjljLTQuNCAwLTgtMy42LTgtOC4xczMuNC04LjEgOC04LjFjLjggMCAxLjcuMiAyLjcuM2wxLjcuNS41LTEuN0MxOC4xIDEwLjIgMjMuMSA3IDI4LjggNyAzNS43IDcgNDEgMTIuMyA0MSAxOS4yYzAgMS4xLS4yIDIuMi0uNSAzLjNsLS43IDIuNSAyLjctLjNoLjVjMiAwIDMuNiAxLjcgMy42IDMuNnMtMS40IDMuMy0zLjEgMy42aC04LjljLS4zLTIuNS0xLjYtNC43LTMuMy02LjQtMi4yLTIuMi01LjItMy41LTguMy0zLjUtMi4yIDAtNC40LjYtNi4xIDEuN2wxLjkgM2MxLjQtLjggMi44LTEuMSA0LjQtMS4xIDIuMiAwIDQuNC44IDUuOCAyLjUgMS42IDEuNiAyLjUgMy42IDIuNSA1LjhzLS44IDQuNC0yLjUgNS44Yy0xLjYgMS43LTMuNiAyLjUtNS44IDIuNS0xLjYgMC0zLjEtLjUtNC40LTEuNGwtMS45IDNjMS45IDEuMSA0LjEgMS45IDYuMSAxLjkgMy4xIDAgNi4xLTEuMSA4LjMtMy40IDEuOS0xLjkgMy00LjQgMy4zLTdINDMuOWMzLjYtLjMgNi4zLTMuNCA2LjMtNy4yIDAtMy0yLjgtNS44LTYuMS02LjQuMi0uNi4yLS45LjItMS45QzQ0LjMgMTEgMzguMSA0IDI4LjIgNCAyMS45IDQgMTYuMyA3LjYgMTQgMTMuNGMtLjggMC0xLjQtLjMtMi4zLS4zQzUuMiAxMyAwIDE4IDAgMjQuNGMwIDYuMyA1LjIgMTEuMyAxMS40IDExLjNoOS44bC0uNy0zLjJ6IiBpZD0icGF0aDIiLz4mI3hhOyAgPGNpcmNsZSBmaWxsPSIjNjgyMTdBIiBjeD0iMjIuOCIgY3k9IjMzLjgiIHI9IjUuNiIgaWQ9ImNpcmNsZTQiLz4mI3hhOzwvc3ZnPg==" parent="1" vertex="1">
                    <mxGeometry x="-936.5" y="267" width="50" height="50" as="geometry"/>
                </mxCell>
                <mxCell id="ejB2oqNJLONClBfcNZHo-8" value="Azure WebServices" style="text;html=1;resizable=0;autosize=1;align=center;verticalAlign=middle;points=[];fillColor=none;strokeColor=none;rounded=0;" parent="1" vertex="1">
                    <mxGeometry x="-328" y="240" width="120" height="20" as="geometry"/>
                </mxCell>
                <mxCell id="ejB2oqNJLONClBfcNZHo-14" value="&lt;br&gt;&lt;br&gt;&lt;br&gt;&lt;br&gt;&lt;br&gt;&lt;br&gt;&lt;br&gt;&lt;br&gt;&lt;br&gt;&lt;br&gt;&lt;br&gt;&lt;br&gt;&lt;br&gt;&lt;br&gt;&lt;br&gt;&lt;br&gt;&lt;br&gt;&lt;br&gt;" style="rounded=1;whiteSpace=wrap;html=1;" parent="1" vertex="1">
                    <mxGeometry x="-783" y="880" width="663" height="170" as="geometry"/>
                </mxCell>
                <mxCell id="ejB2oqNJLONClBfcNZHo-15" value="On- Prem" style="text;html=1;resizable=0;autosize=1;align=center;verticalAlign=middle;points=[];fillColor=none;strokeColor=none;rounded=0;" parent="1" vertex="1">
                    <mxGeometry x="-693" y="903" width="70" height="20" as="geometry"/>
                </mxCell>
                <mxCell id="ejB2oqNJLONClBfcNZHo-16" value="Dns Server" style="shape=image;verticalLabelPosition=bottom;verticalAlign=top;imageAspect=0;aspect=fixed;image=data:image/svg+xml,PHN2ZyB4bWxuczpkYz0iaHR0cDovL3B1cmwub3JnL2RjL2VsZW1lbnRzLzEuMS8iIHhtbG5zOmNjPSJodHRwOi8vY3JlYXRpdmVjb21tb25zLm9yZy9ucyMiIHhtbG5zOnJkZj0iaHR0cDovL3d3dy53My5vcmcvMTk5OS8wMi8yMi1yZGYtc3ludGF4LW5zIyIgeG1sbnM6c3ZnPSJodHRwOi8vd3d3LnczLm9yZy8yMDAwL3N2ZyIgeG1sbnM9Imh0dHA6Ly93d3cudzMub3JnLzIwMDAvc3ZnIiB4bWxuczpzb2RpcG9kaT0iaHR0cDovL3NvZGlwb2RpLnNvdXJjZWZvcmdlLm5ldC9EVEQvc29kaXBvZGktMC5kdGQiIHhtbG5zOmlua3NjYXBlPSJodHRwOi8vd3d3Lmlua3NjYXBlLm9yZy9uYW1lc3BhY2VzL2lua3NjYXBlIiB2ZXJzaW9uPSIxLjEiIGlkPSJMYXllcl8xIiB4PSIwcHgiIHk9IjBweCIgd2lkdGg9IjUwcHgiIGhlaWdodD0iNTBweCIgdmlld0JveD0iMCAwIDUwIDUwIiBlbmFibGUtYmFja2dyb3VuZD0ibmV3IDAgMCA1MCA1MCIgeG1sOnNwYWNlPSJwcmVzZXJ2ZSIgc29kaXBvZGk6ZG9jbmFtZT0iVk0uc3ZnIiBpbmtzY2FwZTp2ZXJzaW9uPSIwLjkyLjMgKDI0MDU1NDYsIDIwMTgtMDMtMTEpIj48bWV0YWRhdGEgaWQ9Im1ldGFkYXRhMTY1MiI+PHJkZjpSREY+PGNjOldvcmsgcmRmOmFib3V0PSIiPjxkYzpmb3JtYXQ+aW1hZ2Uvc3ZnK3htbDwvZGM6Zm9ybWF0PjxkYzp0eXBlIHJkZjpyZXNvdXJjZT0iaHR0cDovL3B1cmwub3JnL2RjL2RjbWl0eXBlL1N0aWxsSW1hZ2UiLz48ZGM6dGl0bGUvPjwvY2M6V29yaz48L3JkZjpSREY+PC9tZXRhZGF0YT48ZGVmcyBpZD0iZGVmczE2NTAiLz48c29kaXBvZGk6bmFtZWR2aWV3IHBhZ2Vjb2xvcj0iI2ZmZmZmZiIgYm9yZGVyY29sb3I9IiM2NjY2NjYiIGJvcmRlcm9wYWNpdHk9IjEiIG9iamVjdHRvbGVyYW5jZT0iMTAiIGdyaWR0b2xlcmFuY2U9IjEwIiBndWlkZXRvbGVyYW5jZT0iMTAiIGlua3NjYXBlOnBhZ2VvcGFjaXR5PSIwIiBpbmtzY2FwZTpwYWdlc2hhZG93PSIyIiBpbmtzY2FwZTp3aW5kb3ctd2lkdGg9IjY0MCIgaW5rc2NhcGU6d2luZG93LWhlaWdodD0iNDgwIiBpZD0ibmFtZWR2aWV3MTY0OCIgc2hvd2dyaWQ9ImZhbHNlIiBpbmtzY2FwZTp6b29tPSI2LjI2IiBpbmtzY2FwZTpjeD0iMjUiIGlua3NjYXBlOmN5PSIyNSIgaW5rc2NhcGU6d2luZG93LXg9IjAiIGlua3NjYXBlOndpbmRvdy15PSIwIiBpbmtzY2FwZTp3aW5kb3ctbWF4aW1pemVkPSIxIiBpbmtzY2FwZTpjdXJyZW50LWxheWVyPSJMYXllcl8xIi8+JiN4YTs8cGF0aCBmaWxsPSIjN0E3QTdBIiBkPSJNMzMsMzhoLTEuMjA3SDE5Ljg5MmgtMC42MjFDMjAuOTIsNDMuOTk5LDE4LjcwNSw0NC44NTksOSw0NC44NTlWNDhoMTIuMzQyaDkuMDExSDQydi0zLjE0MSAgYy05LjcwNSwwLTEwLjY1Ni0wLjg1Ny05LjAwNS02Ljg1OSIgaWQ9InBhdGgxNjI5Ii8+JiN4YTs8cGF0aCBmaWxsPSIjQTBBMUEyIiBkPSJNNDYuOTgsMkgyLjcxOUMxLjIxNSwyLDAuMDAyLDMuMzQ1LDAuMDAyLDQuODQ3djMxLjMyOWMwLDEuNDkzLDEuMjEzLDIuODIzLDIuNzE3LDIuODIzSDQ2Ljk4ICBjMS41MDEsMCwzLjAyMS0xLjMzLDMuMDIxLTIuODIzVjQuODQ3QzUwLjAwMSwzLjM0MSw0OC40ODEsMiw0Ni45OCwyIiBpZD0icGF0aDE2MzEiLz4mI3hhOzxwYXRoIG9wYWNpdHk9IjAuMiIgZmlsbD0iI0ZGRkZGRiIgZW5hYmxlLWJhY2tncm91bmQ9Im5ldyAgICAiIGQ9Ik00Ny4wMTEsMi4wMDNjLTAuMDExLDAtMC4wMjEtMC4wMDItMC4wMzEtMC4wMDJIMi43MTggIGMtMS41MDQsMC0yLjcxNywxLjM0NC0yLjcxNywyLjg0N3YzMS4zMjhDMC4wMDEsMzcuNjcsMS4yMTQsMzksMi43MTgsMzloMS4wNTNMNDcuMDExLDIuMDAzeiIgaWQ9InBhdGgxNjMzIi8+JiN4YTs8cG9seWdvbiBmaWxsPSIjNTlCNEQ5IiBwb2ludHM9IjQ2LDYgNDYsMzUgNCwzNSA0LDYgIiBpZD0icG9seWdvbjE2MzUiLz4mI3hhOzxyZWN0IHg9IjkiIHk9IjQ1IiBmaWxsPSIjQTBBMUEyIiB3aWR0aD0iMzMiIGhlaWdodD0iMyIgaWQ9InJlY3QxNjM3Ii8+JiN4YTs8cGF0aCBmaWxsPSIjQjhENDMyIiBkPSJNMjUuNTE4LDQuMDk1YzAsMC4zOTItMC4zMTgsMC43MS0wLjcxLDAuNzFjLTAuMzkzLDAtMC43MDktMC4zMTgtMC43MDktMC43MWMwLTAuMzkzLDAuMzE2LTAuNzEsMC43MDktMC43MSAgQzI1LjIsMy4zODUsMjUuNTE4LDMuNzAyLDI1LjUxOCw0LjA5NSIgaWQ9InBhdGgxNjM5Ii8+JiN4YTs8cGF0aCBmaWxsPSIjRkZGRkZGIiBkPSJNMjUuMDI4LDE5LjM5NGMtMC4wNDUsMC0wLjA5MS0wLjAxNC0wLjEzNC0wLjAzOGwtOC44MDQtNS4wODJjLTAuMDgxLTAuMDQ4LTAuMTMyLTAuMTM3LTAuMTMyLTAuMjMxICBjMC0wLjA5NSwwLjA1MS0wLjE4MywwLjEzMi0wLjIzbDguNzUxLTUuMDQ5YzAuMDgyLTAuMDQ2LDAuMTgyLTAuMDQ2LDAuMjYzLDBsOC44MDcsNS4wODRjMC4wODIsMC4wNDcsMC4xMzEsMC4xMzUsMC4xMzEsMC4yMyAgYzAsMC4wOTYtMC4wNDksMC4xODMtMC4xMzEsMC4yM2wtOC43NDgsNS4wNDhDMjUuMTIsMTkuMzgsMjUuMDc2LDE5LjM5NCwyNS4wMjgsMTkuMzk0IiBpZD0icGF0aDE2NDEiLz4mI3hhOzxwYXRoIG9wYWNpdHk9IjAuNyIgZmlsbD0iI0ZGRkZGRiIgZW5hYmxlLWJhY2tncm91bmQ9Im5ldyAgICAiIGQ9Ik0yMy43NjMsMzEuNzQ2Yy0wLjA1LDAtMC4wOTUtMC4wMTItMC4xMzQtMC4wMzZsLTguNzc4LTUuMDY2ICBjLTAuMDg1LTAuMDQ3LTAuMTM2LTAuMTMzLTAuMTM2LTAuMjMxVjE2LjI0N2MwLTAuMDk2LDAuMDUxLTAuMTgzLDAuMTM2LTAuMjMxYzAuMDgxLTAuMDQ5LDAuMTgxLTAuMDQ5LDAuMjY4LDBsOC43NzcsNS4wNjQgIGMwLjA3OCwwLjA1LDAuMTMsMC4xMzcsMC4xMywwLjIzM3YxMC4xNjZjMCwwLjA5Ny0wLjA1MiwwLjE4My0wLjEzLDAuMjMxQzIzLjg1MiwzMS43MzQsMjMuODA2LDMxLjc0NiwyMy43NjMsMzEuNzQ2IiBpZD0icGF0aDE2NDMiLz4mI3hhOzxwYXRoIG9wYWNpdHk9IjAuNCIgZmlsbD0iI0ZGRkZGRiIgZW5hYmxlLWJhY2tncm91bmQ9Im5ldyAgICAiIGQ9Ik0yNi4yNDgsMzEuNzQ2Yy0wLjA0OCwwLTAuMDkzLTAuMDEyLTAuMTM4LTAuMDM2ICBjLTAuMDc4LTAuMDQ4LTAuMTI5LTAuMTM0LTAuMTI5LTAuMjMxVjIxLjM3N2MwLTAuMDk0LDAuMDUxLTAuMTgyLDAuMTI5LTAuMjMxbDguNzc3LTUuMDY0YzAuMDg0LTAuMDQ4LDAuMTgyLTAuMDQ4LDAuMjY0LDAgIGMwLjA4NCwwLjA0NywwLjEzNSwwLjEzNSwwLjEzNSwwLjIzdjEwLjEwMWMwLDAuMDk4LTAuMDUxLDAuMTg0LTAuMTM1LDAuMjMxbC04Ljc3NCw1LjA2NiAgQzI2LjM0LDMxLjczNCwyNi4yOTQsMzEuNzQ2LDI2LjI0OCwzMS43NDYiIGlkPSJwYXRoMTY0NSIvPiYjeGE7PC9zdmc+" parent="1" vertex="1">
                    <mxGeometry x="-683" y="940" width="50" height="50" as="geometry"/>
                </mxCell>
                <mxCell id="ejB2oqNJLONClBfcNZHo-18" value="Azure APIM -&amp;nbsp; Internal Vnet" style="text;html=1;resizable=0;autosize=1;align=center;verticalAlign=middle;points=[];fillColor=none;strokeColor=none;rounded=0;" parent="1" vertex="1">
                    <mxGeometry x="-1000" y="240" width="160" height="20" as="geometry"/>
                </mxCell>
                <mxCell id="ejB2oqNJLONClBfcNZHo-19" value="Data Services" style="shape=image;verticalLabelPosition=bottom;verticalAlign=top;imageAspect=0;aspect=fixed;image=data:image/svg+xml,PHN2ZyB4bWxuczpkYz0iaHR0cDovL3B1cmwub3JnL2RjL2VsZW1lbnRzLzEuMS8iIHhtbG5zOmNjPSJodHRwOi8vY3JlYXRpdmVjb21tb25zLm9yZy9ucyMiIHhtbG5zOnJkZj0iaHR0cDovL3d3dy53My5vcmcvMTk5OS8wMi8yMi1yZGYtc3ludGF4LW5zIyIgeG1sbnM6c3ZnPSJodHRwOi8vd3d3LnczLm9yZy8yMDAwL3N2ZyIgeG1sbnM9Imh0dHA6Ly93d3cudzMub3JnLzIwMDAvc3ZnIiB4bWxuczpzb2RpcG9kaT0iaHR0cDovL3NvZGlwb2RpLnNvdXJjZWZvcmdlLm5ldC9EVEQvc29kaXBvZGktMC5kdGQiIHhtbG5zOmlua3NjYXBlPSJodHRwOi8vd3d3Lmlua3NjYXBlLm9yZy9uYW1lc3BhY2VzL2lua3NjYXBlIiB2ZXJzaW9uPSIxLjEiIGlkPSJMYXllcl8xIiB4PSIwcHgiIHk9IjBweCIgd2lkdGg9IjUwcHgiIGhlaWdodD0iNTBweCIgdmlld0JveD0iMCAwIDUwIDUwIiBlbmFibGUtYmFja2dyb3VuZD0ibmV3IDAgMCA1MCA1MCIgeG1sOnNwYWNlPSJwcmVzZXJ2ZSIgc29kaXBvZGk6ZG9jbmFtZT0iVk0uc3ZnIiBpbmtzY2FwZTp2ZXJzaW9uPSIwLjkyLjMgKDI0MDU1NDYsIDIwMTgtMDMtMTEpIj48bWV0YWRhdGEgaWQ9Im1ldGFkYXRhMTY1MiI+PHJkZjpSREY+PGNjOldvcmsgcmRmOmFib3V0PSIiPjxkYzpmb3JtYXQ+aW1hZ2Uvc3ZnK3htbDwvZGM6Zm9ybWF0PjxkYzp0eXBlIHJkZjpyZXNvdXJjZT0iaHR0cDovL3B1cmwub3JnL2RjL2RjbWl0eXBlL1N0aWxsSW1hZ2UiLz48ZGM6dGl0bGUvPjwvY2M6V29yaz48L3JkZjpSREY+PC9tZXRhZGF0YT48ZGVmcyBpZD0iZGVmczE2NTAiLz48c29kaXBvZGk6bmFtZWR2aWV3IHBhZ2Vjb2xvcj0iI2ZmZmZmZiIgYm9yZGVyY29sb3I9IiM2NjY2NjYiIGJvcmRlcm9wYWNpdHk9IjEiIG9iamVjdHRvbGVyYW5jZT0iMTAiIGdyaWR0b2xlcmFuY2U9IjEwIiBndWlkZXRvbGVyYW5jZT0iMTAiIGlua3NjYXBlOnBhZ2VvcGFjaXR5PSIwIiBpbmtzY2FwZTpwYWdlc2hhZG93PSIyIiBpbmtzY2FwZTp3aW5kb3ctd2lkdGg9IjY0MCIgaW5rc2NhcGU6d2luZG93LWhlaWdodD0iNDgwIiBpZD0ibmFtZWR2aWV3MTY0OCIgc2hvd2dyaWQ9ImZhbHNlIiBpbmtzY2FwZTp6b29tPSI2LjI2IiBpbmtzY2FwZTpjeD0iMjUiIGlua3NjYXBlOmN5PSIyNSIgaW5rc2NhcGU6d2luZG93LXg9IjAiIGlua3NjYXBlOndpbmRvdy15PSIwIiBpbmtzY2FwZTp3aW5kb3ctbWF4aW1pemVkPSIxIiBpbmtzY2FwZTpjdXJyZW50LWxheWVyPSJMYXllcl8xIi8+JiN4YTs8cGF0aCBmaWxsPSIjN0E3QTdBIiBkPSJNMzMsMzhoLTEuMjA3SDE5Ljg5MmgtMC42MjFDMjAuOTIsNDMuOTk5LDE4LjcwNSw0NC44NTksOSw0NC44NTlWNDhoMTIuMzQyaDkuMDExSDQydi0zLjE0MSAgYy05LjcwNSwwLTEwLjY1Ni0wLjg1Ny05LjAwNS02Ljg1OSIgaWQ9InBhdGgxNjI5Ii8+JiN4YTs8cGF0aCBmaWxsPSIjQTBBMUEyIiBkPSJNNDYuOTgsMkgyLjcxOUMxLjIxNSwyLDAuMDAyLDMuMzQ1LDAuMDAyLDQuODQ3djMxLjMyOWMwLDEuNDkzLDEuMjEzLDIuODIzLDIuNzE3LDIuODIzSDQ2Ljk4ICBjMS41MDEsMCwzLjAyMS0xLjMzLDMuMDIxLTIuODIzVjQuODQ3QzUwLjAwMSwzLjM0MSw0OC40ODEsMiw0Ni45OCwyIiBpZD0icGF0aDE2MzEiLz4mI3hhOzxwYXRoIG9wYWNpdHk9IjAuMiIgZmlsbD0iI0ZGRkZGRiIgZW5hYmxlLWJhY2tncm91bmQ9Im5ldyAgICAiIGQ9Ik00Ny4wMTEsMi4wMDNjLTAuMDExLDAtMC4wMjEtMC4wMDItMC4wMzEtMC4wMDJIMi43MTggIGMtMS41MDQsMC0yLjcxNywxLjM0NC0yLjcxNywyLjg0N3YzMS4zMjhDMC4wMDEsMzcuNjcsMS4yMTQsMzksMi43MTgsMzloMS4wNTNMNDcuMDExLDIuMDAzeiIgaWQ9InBhdGgxNjMzIi8+JiN4YTs8cG9seWdvbiBmaWxsPSIjNTlCNEQ5IiBwb2ludHM9IjQ2LDYgNDYsMzUgNCwzNSA0LDYgIiBpZD0icG9seWdvbjE2MzUiLz4mI3hhOzxyZWN0IHg9IjkiIHk9IjQ1IiBmaWxsPSIjQTBBMUEyIiB3aWR0aD0iMzMiIGhlaWdodD0iMyIgaWQ9InJlY3QxNjM3Ii8+JiN4YTs8cGF0aCBmaWxsPSIjQjhENDMyIiBkPSJNMjUuNTE4LDQuMDk1YzAsMC4zOTItMC4zMTgsMC43MS0wLjcxLDAuNzFjLTAuMzkzLDAtMC43MDktMC4zMTgtMC43MDktMC43MWMwLTAuMzkzLDAuMzE2LTAuNzEsMC43MDktMC43MSAgQzI1LjIsMy4zODUsMjUuNTE4LDMuNzAyLDI1LjUxOCw0LjA5NSIgaWQ9InBhdGgxNjM5Ii8+JiN4YTs8cGF0aCBmaWxsPSIjRkZGRkZGIiBkPSJNMjUuMDI4LDE5LjM5NGMtMC4wNDUsMC0wLjA5MS0wLjAxNC0wLjEzNC0wLjAzOGwtOC44MDQtNS4wODJjLTAuMDgxLTAuMDQ4LTAuMTMyLTAuMTM3LTAuMTMyLTAuMjMxICBjMC0wLjA5NSwwLjA1MS0wLjE4MywwLjEzMi0wLjIzbDguNzUxLTUuMDQ5YzAuMDgyLTAuMDQ2LDAuMTgyLTAuMDQ2LDAuMjYzLDBsOC44MDcsNS4wODRjMC4wODIsMC4wNDcsMC4xMzEsMC4xMzUsMC4xMzEsMC4yMyAgYzAsMC4wOTYtMC4wNDksMC4xODMtMC4xMzEsMC4yM2wtOC43NDgsNS4wNDhDMjUuMTIsMTkuMzgsMjUuMDc2LDE5LjM5NCwyNS4wMjgsMTkuMzk0IiBpZD0icGF0aDE2NDEiLz4mI3hhOzxwYXRoIG9wYWNpdHk9IjAuNyIgZmlsbD0iI0ZGRkZGRiIgZW5hYmxlLWJhY2tncm91bmQ9Im5ldyAgICAiIGQ9Ik0yMy43NjMsMzEuNzQ2Yy0wLjA1LDAtMC4wOTUtMC4wMTItMC4xMzQtMC4wMzZsLTguNzc4LTUuMDY2ICBjLTAuMDg1LTAuMDQ3LTAuMTM2LTAuMTMzLTAuMTM2LTAuMjMxVjE2LjI0N2MwLTAuMDk2LDAuMDUxLTAuMTgzLDAuMTM2LTAuMjMxYzAuMDgxLTAuMDQ5LDAuMTgxLTAuMDQ5LDAuMjY4LDBsOC43NzcsNS4wNjQgIGMwLjA3OCwwLjA1LDAuMTMsMC4xMzcsMC4xMywwLjIzM3YxMC4xNjZjMCwwLjA5Ny0wLjA1MiwwLjE4My0wLjEzLDAuMjMxQzIzLjg1MiwzMS43MzQsMjMuODA2LDMxLjc0NiwyMy43NjMsMzEuNzQ2IiBpZD0icGF0aDE2NDMiLz4mI3hhOzxwYXRoIG9wYWNpdHk9IjAuNCIgZmlsbD0iI0ZGRkZGRiIgZW5hYmxlLWJhY2tncm91bmQ9Im5ldyAgICAiIGQ9Ik0yNi4yNDgsMzEuNzQ2Yy0wLjA0OCwwLTAuMDkzLTAuMDEyLTAuMTM4LTAuMDM2ICBjLTAuMDc4LTAuMDQ4LTAuMTI5LTAuMTM0LTAuMTI5LTAuMjMxVjIxLjM3N2MwLTAuMDk0LDAuMDUxLTAuMTgyLDAuMTI5LTAuMjMxbDguNzc3LTUuMDY0YzAuMDg0LTAuMDQ4LDAuMTgyLTAuMDQ4LDAuMjY0LDAgIGMwLjA4NCwwLjA0NywwLjEzNSwwLjEzNSwwLjEzNSwwLjIzdjEwLjEwMWMwLDAuMDk4LTAuMDUxLDAuMTg0LTAuMTM1LDAuMjMxbC04Ljc3NCw1LjA2NiAgQzI2LjM0LDMxLjczNCwyNi4yOTQsMzEuNzQ2LDI2LjI0OCwzMS43NDYiIGlkPSJwYXRoMTY0NSIvPiYjeGE7PC9zdmc+" parent="1" vertex="1">
                    <mxGeometry x="-573" y="940" width="50" height="50" as="geometry"/>
                </mxCell>
                <mxCell id="ejB2oqNJLONClBfcNZHo-20" value="Data Services" style="shape=image;verticalLabelPosition=bottom;verticalAlign=top;imageAspect=0;aspect=fixed;image=data:image/svg+xml,PHN2ZyB4bWxuczpkYz0iaHR0cDovL3B1cmwub3JnL2RjL2VsZW1lbnRzLzEuMS8iIHhtbG5zOmNjPSJodHRwOi8vY3JlYXRpdmVjb21tb25zLm9yZy9ucyMiIHhtbG5zOnJkZj0iaHR0cDovL3d3dy53My5vcmcvMTk5OS8wMi8yMi1yZGYtc3ludGF4LW5zIyIgeG1sbnM6c3ZnPSJodHRwOi8vd3d3LnczLm9yZy8yMDAwL3N2ZyIgeG1sbnM9Imh0dHA6Ly93d3cudzMub3JnLzIwMDAvc3ZnIiB4bWxuczpzb2RpcG9kaT0iaHR0cDovL3NvZGlwb2RpLnNvdXJjZWZvcmdlLm5ldC9EVEQvc29kaXBvZGktMC5kdGQiIHhtbG5zOmlua3NjYXBlPSJodHRwOi8vd3d3Lmlua3NjYXBlLm9yZy9uYW1lc3BhY2VzL2lua3NjYXBlIiB2ZXJzaW9uPSIxLjEiIGlkPSJMYXllcl8xIiB4PSIwcHgiIHk9IjBweCIgd2lkdGg9IjUwcHgiIGhlaWdodD0iNTBweCIgdmlld0JveD0iMCAwIDUwIDUwIiBlbmFibGUtYmFja2dyb3VuZD0ibmV3IDAgMCA1MCA1MCIgeG1sOnNwYWNlPSJwcmVzZXJ2ZSIgc29kaXBvZGk6ZG9jbmFtZT0iVk0uc3ZnIiBpbmtzY2FwZTp2ZXJzaW9uPSIwLjkyLjMgKDI0MDU1NDYsIDIwMTgtMDMtMTEpIj48bWV0YWRhdGEgaWQ9Im1ldGFkYXRhMTY1MiI+PHJkZjpSREY+PGNjOldvcmsgcmRmOmFib3V0PSIiPjxkYzpmb3JtYXQ+aW1hZ2Uvc3ZnK3htbDwvZGM6Zm9ybWF0PjxkYzp0eXBlIHJkZjpyZXNvdXJjZT0iaHR0cDovL3B1cmwub3JnL2RjL2RjbWl0eXBlL1N0aWxsSW1hZ2UiLz48ZGM6dGl0bGUvPjwvY2M6V29yaz48L3JkZjpSREY+PC9tZXRhZGF0YT48ZGVmcyBpZD0iZGVmczE2NTAiLz48c29kaXBvZGk6bmFtZWR2aWV3IHBhZ2Vjb2xvcj0iI2ZmZmZmZiIgYm9yZGVyY29sb3I9IiM2NjY2NjYiIGJvcmRlcm9wYWNpdHk9IjEiIG9iamVjdHRvbGVyYW5jZT0iMTAiIGdyaWR0b2xlcmFuY2U9IjEwIiBndWlkZXRvbGVyYW5jZT0iMTAiIGlua3NjYXBlOnBhZ2VvcGFjaXR5PSIwIiBpbmtzY2FwZTpwYWdlc2hhZG93PSIyIiBpbmtzY2FwZTp3aW5kb3ctd2lkdGg9IjY0MCIgaW5rc2NhcGU6d2luZG93LWhlaWdodD0iNDgwIiBpZD0ibmFtZWR2aWV3MTY0OCIgc2hvd2dyaWQ9ImZhbHNlIiBpbmtzY2FwZTp6b29tPSI2LjI2IiBpbmtzY2FwZTpjeD0iMjUiIGlua3NjYXBlOmN5PSIyNSIgaW5rc2NhcGU6d2luZG93LXg9IjAiIGlua3NjYXBlOndpbmRvdy15PSIwIiBpbmtzY2FwZTp3aW5kb3ctbWF4aW1pemVkPSIxIiBpbmtzY2FwZTpjdXJyZW50LWxheWVyPSJMYXllcl8xIi8+JiN4YTs8cGF0aCBmaWxsPSIjN0E3QTdBIiBkPSJNMzMsMzhoLTEuMjA3SDE5Ljg5MmgtMC42MjFDMjAuOTIsNDMuOTk5LDE4LjcwNSw0NC44NTksOSw0NC44NTlWNDhoMTIuMzQyaDkuMDExSDQydi0zLjE0MSAgYy05LjcwNSwwLTEwLjY1Ni0wLjg1Ny05LjAwNS02Ljg1OSIgaWQ9InBhdGgxNjI5Ii8+JiN4YTs8cGF0aCBmaWxsPSIjQTBBMUEyIiBkPSJNNDYuOTgsMkgyLjcxOUMxLjIxNSwyLDAuMDAyLDMuMzQ1LDAuMDAyLDQuODQ3djMxLjMyOWMwLDEuNDkzLDEuMjEzLDIuODIzLDIuNzE3LDIuODIzSDQ2Ljk4ICBjMS41MDEsMCwzLjAyMS0xLjMzLDMuMDIxLTIuODIzVjQuODQ3QzUwLjAwMSwzLjM0MSw0OC40ODEsMiw0Ni45OCwyIiBpZD0icGF0aDE2MzEiLz4mI3hhOzxwYXRoIG9wYWNpdHk9IjAuMiIgZmlsbD0iI0ZGRkZGRiIgZW5hYmxlLWJhY2tncm91bmQ9Im5ldyAgICAiIGQ9Ik00Ny4wMTEsMi4wMDNjLTAuMDExLDAtMC4wMjEtMC4wMDItMC4wMzEtMC4wMDJIMi43MTggIGMtMS41MDQsMC0yLjcxNywxLjM0NC0yLjcxNywyLjg0N3YzMS4zMjhDMC4wMDEsMzcuNjcsMS4yMTQsMzksMi43MTgsMzloMS4wNTNMNDcuMDExLDIuMDAzeiIgaWQ9InBhdGgxNjMzIi8+JiN4YTs8cG9seWdvbiBmaWxsPSIjNTlCNEQ5IiBwb2ludHM9IjQ2LDYgNDYsMzUgNCwzNSA0LDYgIiBpZD0icG9seWdvbjE2MzUiLz4mI3hhOzxyZWN0IHg9IjkiIHk9IjQ1IiBmaWxsPSIjQTBBMUEyIiB3aWR0aD0iMzMiIGhlaWdodD0iMyIgaWQ9InJlY3QxNjM3Ii8+JiN4YTs8cGF0aCBmaWxsPSIjQjhENDMyIiBkPSJNMjUuNTE4LDQuMDk1YzAsMC4zOTItMC4zMTgsMC43MS0wLjcxLDAuNzFjLTAuMzkzLDAtMC43MDktMC4zMTgtMC43MDktMC43MWMwLTAuMzkzLDAuMzE2LTAuNzEsMC43MDktMC43MSAgQzI1LjIsMy4zODUsMjUuNTE4LDMuNzAyLDI1LjUxOCw0LjA5NSIgaWQ9InBhdGgxNjM5Ii8+JiN4YTs8cGF0aCBmaWxsPSIjRkZGRkZGIiBkPSJNMjUuMDI4LDE5LjM5NGMtMC4wNDUsMC0wLjA5MS0wLjAxNC0wLjEzNC0wLjAzOGwtOC44MDQtNS4wODJjLTAuMDgxLTAuMDQ4LTAuMTMyLTAuMTM3LTAuMTMyLTAuMjMxICBjMC0wLjA5NSwwLjA1MS0wLjE4MywwLjEzMi0wLjIzbDguNzUxLTUuMDQ5YzAuMDgyLTAuMDQ2LDAuMTgyLTAuMDQ2LDAuMjYzLDBsOC44MDcsNS4wODRjMC4wODIsMC4wNDcsMC4xMzEsMC4xMzUsMC4xMzEsMC4yMyAgYzAsMC4wOTYtMC4wNDksMC4xODMtMC4xMzEsMC4yM2wtOC43NDgsNS4wNDhDMjUuMTIsMTkuMzgsMjUuMDc2LDE5LjM5NCwyNS4wMjgsMTkuMzk0IiBpZD0icGF0aDE2NDEiLz4mI3hhOzxwYXRoIG9wYWNpdHk9IjAuNyIgZmlsbD0iI0ZGRkZGRiIgZW5hYmxlLWJhY2tncm91bmQ9Im5ldyAgICAiIGQ9Ik0yMy43NjMsMzEuNzQ2Yy0wLjA1LDAtMC4wOTUtMC4wMTItMC4xMzQtMC4wMzZsLTguNzc4LTUuMDY2ICBjLTAuMDg1LTAuMDQ3LTAuMTM2LTAuMTMzLTAuMTM2LTAuMjMxVjE2LjI0N2MwLTAuMDk2LDAuMDUxLTAuMTgzLDAuMTM2LTAuMjMxYzAuMDgxLTAuMDQ5LDAuMTgxLTAuMDQ5LDAuMjY4LDBsOC43NzcsNS4wNjQgIGMwLjA3OCwwLjA1LDAuMTMsMC4xMzcsMC4xMywwLjIzM3YxMC4xNjZjMCwwLjA5Ny0wLjA1MiwwLjE4My0wLjEzLDAuMjMxQzIzLjg1MiwzMS43MzQsMjMuODA2LDMxLjc0NiwyMy43NjMsMzEuNzQ2IiBpZD0icGF0aDE2NDMiLz4mI3hhOzxwYXRoIG9wYWNpdHk9IjAuNCIgZmlsbD0iI0ZGRkZGRiIgZW5hYmxlLWJhY2tncm91bmQ9Im5ldyAgICAiIGQ9Ik0yNi4yNDgsMzEuNzQ2Yy0wLjA0OCwwLTAuMDkzLTAuMDEyLTAuMTM4LTAuMDM2ICBjLTAuMDc4LTAuMDQ4LTAuMTI5LTAuMTM0LTAuMTI5LTAuMjMxVjIxLjM3N2MwLTAuMDk0LDAuMDUxLTAuMTgyLDAuMTI5LTAuMjMxbDguNzc3LTUuMDY0YzAuMDg0LTAuMDQ4LDAuMTgyLTAuMDQ4LDAuMjY0LDAgIGMwLjA4NCwwLjA0NywwLjEzNSwwLjEzNSwwLjEzNSwwLjIzdjEwLjEwMWMwLDAuMDk4LTAuMDUxLDAuMTg0LTAuMTM1LDAuMjMxbC04Ljc3NCw1LjA2NiAgQzI2LjM0LDMxLjczNCwyNi4yOTQsMzEuNzQ2LDI2LjI0OCwzMS43NDYiIGlkPSJwYXRoMTY0NSIvPiYjeGE7PC9zdmc+" parent="1" vertex="1">
                    <mxGeometry x="-463" y="940" width="50" height="50" as="geometry"/>
                </mxCell>
                <mxCell id="ejB2oqNJLONClBfcNZHo-23" value="APIM  Gateway" style="shape=image;verticalLabelPosition=bottom;verticalAlign=top;imageAspect=0;aspect=fixed;image=data:image/svg+xml,PHN2ZyB4bWxuczpkYz0iaHR0cDovL3B1cmwub3JnL2RjL2VsZW1lbnRzLzEuMS8iIHhtbG5zOmNjPSJodHRwOi8vY3JlYXRpdmVjb21tb25zLm9yZy9ucyMiIHhtbG5zOnJkZj0iaHR0cDovL3d3dy53My5vcmcvMTk5OS8wMi8yMi1yZGYtc3ludGF4LW5zIyIgeG1sbnM6c3ZnPSJodHRwOi8vd3d3LnczLm9yZy8yMDAwL3N2ZyIgeG1sbnM9Imh0dHA6Ly93d3cudzMub3JnLzIwMDAvc3ZnIiB4bWxuczpzb2RpcG9kaT0iaHR0cDovL3NvZGlwb2RpLnNvdXJjZWZvcmdlLm5ldC9EVEQvc29kaXBvZGktMC5kdGQiIHhtbG5zOmlua3NjYXBlPSJodHRwOi8vd3d3Lmlua3NjYXBlLm9yZy9uYW1lc3BhY2VzL2lua3NjYXBlIiB2ZXJzaW9uPSIxLjEiIGlkPSJMYXllcl8xIiB4PSIwcHgiIHk9IjBweCIgd2lkdGg9IjUwcHgiIGhlaWdodD0iNTBweCIgdmlld0JveD0iMCAwIDUwIDUwIiBlbmFibGUtYmFja2dyb3VuZD0ibmV3IDAgMCA1MCA1MCIgeG1sOnNwYWNlPSJwcmVzZXJ2ZSIgc29kaXBvZGk6ZG9jbmFtZT0iQXBwbGljYXRpb24gR2F0ZXdheS5zdmciIGlua3NjYXBlOnZlcnNpb249IjAuOTIuMyAoMjQwNTU0NiwgMjAxOC0wMy0xMSkiPjxtZXRhZGF0YSBpZD0ibWV0YWRhdGEzOTEyIj48cmRmOlJERj48Y2M6V29yayByZGY6YWJvdXQ9IiI+PGRjOmZvcm1hdD5pbWFnZS9zdmcreG1sPC9kYzpmb3JtYXQ+PGRjOnR5cGUgcmRmOnJlc291cmNlPSJodHRwOi8vcHVybC5vcmcvZGMvZGNtaXR5cGUvU3RpbGxJbWFnZSIvPjxkYzp0aXRsZS8+PC9jYzpXb3JrPjwvcmRmOlJERj48L21ldGFkYXRhPjxkZWZzIGlkPSJkZWZzMzkxMCIvPjxzb2RpcG9kaTpuYW1lZHZpZXcgcGFnZWNvbG9yPSIjZmZmZmZmIiBib3JkZXJjb2xvcj0iIzY2NjY2NiIgYm9yZGVyb3BhY2l0eT0iMSIgb2JqZWN0dG9sZXJhbmNlPSIxMCIgZ3JpZHRvbGVyYW5jZT0iMTAiIGd1aWRldG9sZXJhbmNlPSIxMCIgaW5rc2NhcGU6cGFnZW9wYWNpdHk9IjAiIGlua3NjYXBlOnBhZ2VzaGFkb3c9IjIiIGlua3NjYXBlOndpbmRvdy13aWR0aD0iNjQwIiBpbmtzY2FwZTp3aW5kb3ctaGVpZ2h0PSI0ODAiIGlkPSJuYW1lZHZpZXczOTA4IiBzaG93Z3JpZD0iZmFsc2UiIGlua3NjYXBlOnpvb209IjYuMjYiIGlua3NjYXBlOmN4PSIyNSIgaW5rc2NhcGU6Y3k9IjI1IiBpbmtzY2FwZTp3aW5kb3cteD0iMCIgaW5rc2NhcGU6d2luZG93LXk9IjAiIGlua3NjYXBlOndpbmRvdy1tYXhpbWl6ZWQ9IjEiIGlua3NjYXBlOmN1cnJlbnQtbGF5ZXI9IkxheWVyXzEiLz4mI3hhOzxwYXRoIGZpbGw9IiM3RkJBMDAiIGQ9Ik0yNSw1MGMtMS4yLDAtMi40LTAuNS0zLjMtMS40TDEuNCwyOC4zQzAuNSwyNy40LDAsMjYuMiwwLDI1czAuNS0yLjQsMS40LTMuM0wyMS43LDEuNCAgQzIyLjYsMC41LDIzLjgsMCwyNSwwczIuNCwwLjUsMy4zLDEuNGwyMC40LDIwLjRjMC45LDAuOSwxLjQsMiwxLjQsMy4zYzAsMS4yLTAuNSwyLjQtMS40LDMuM0wyOC4zLDQ4LjZDMjcuNCw0OS41LDI2LjIsNTAsMjUsNTAiIGlkPSJwYXRoMzg5MSIvPiYjeGE7PHBhdGggZmlsbD0iI0ZGRkZGRiIgZD0iTTI5LjczOCwxOC41ODRjLTEuMzk4LDEuMDY5LTMuMDQ0LDEuNTg5LTQuNjgsMS41ODljLTIuMzIsMC00LjYxNC0xLjA0Mi02LjEzMS0zLjAyNSAgYy0yLjU5LTMuMzgyLTEuOTUxLTguMjE5LDEuNDM3LTEwLjgxMWMxLjM5Ny0xLjA3NSwzLjA0Ni0xLjU4OCw0LjY3OS0xLjU4OGMyLjMyLDAsNC42MTUsMS4wNDIsNi4xMzEsMy4wMjYgIEMzMy43NjUsMTEuMTU4LDMzLjExOSwxNS45OTYsMjkuNzM4LDE4LjU4NCIgaWQ9InBhdGgzODkzIi8+JiN4YTs8cGF0aCBvcGFjaXR5PSIwLjE1IiBmaWxsPSIjRkZGRkZGIiBlbmFibGUtYmFja2dyb3VuZD0ibmV3ICAgICIgZD0iTTI4LjMsMS40QzI3LjQsMC41LDI2LjIsMCwyNSwwcy0yLjQsMC41LTMuMywxLjRMMS40LDIxLjcgIEMwLjUsMjIuNiwwLDIzLjgsMCwyNXMwLjUsMi40LDEuNCwzLjNsMTEuNSwxMS41TDM0LjYsNy43TDI4LjMsMS40eiIgaWQ9InBhdGgzODk1Ii8+JiN4YTs8cG9seWdvbiBmaWxsPSIjRkZGRkZGIiBwb2ludHM9IjI1LDQ1LjYgMzEuNiwzOSAyNi45LDM5IDI2LjksMTkuMTQ5IDIzLDE5LjE0OSAyMywzOSAxOC40LDM5ICIgaWQ9InBvbHlnb24zODk3Ii8+JiN4YTs8cG9seWdvbiBmaWxsPSIjRkZGRkZGIiBwb2ludHM9IjM5LjMzLDMzLjQ4IDM5LjMzLDI0LjE0NiAzNi4wNzcsMjcuMzk5IDI3LjYzMywxOC45NTUgMjQuODA1LDIxLjc4MyAzMy4yNDksMzAuMjI3IDI5Ljk5NiwzMy40OCAgICIgaWQ9InBvbHlnb24zODk5Ii8+JiN4YTs8cG9seWdvbiBmaWxsPSIjRkZGRkZGIiBwb2ludHM9IjEwLjY4NSwzMy41MTUgMjAuMDE4LDMzLjUxNSAxNi43NjYsMzAuMjYzIDI1LjQ0NywyMS41ODIgMjIuNjE4LDE4Ljc1MyAxMy45MzcsMjcuNDM0ICAgMTAuNjg1LDI0LjE4MiAiIGlkPSJwb2x5Z29uMzkwMSIvPiYjeGE7PHBhdGggZmlsbD0iIzU5QjREOSIgZD0iTTI5LjExNSwxNy43NzFjLTEuMjEyLDAuOTI3LTIuNjQsMS4zNzgtNC4wNTgsMS4zNzhjLTIuMDEyLDAtNC4wMDItMC45MDMtNS4zMTYtMi42MjMgIGMtMi4yNDYtMi45MzMtMS42OTItNy4xMjcsMS4yNDYtOS4zNzVjMS4yMTItMC45MzIsMi42NDEtMS4zNzcsNC4wNTctMS4zNzdjMi4wMTIsMCw0LjAwMiwwLjkwMyw1LjMxNiwyLjYyNCAgQzMyLjYwOCwxMS4zMzEsMzIuMDQ4LDE1LjUyNiwyOS4xMTUsMTcuNzcxIiBpZD0icGF0aDM5MDMiLz4mI3hhOzxwYXRoIGZpbGw9IiNGRkZGRkYiIGQ9Ik0yNy44ODYsMTMuNjM1YzAuNDg2LDAuNjM0LDEuMzg4LDAuNzQ4LDIuMDE4LDAuMjY5YzAuMDMzLTAuMDI1LDAuMDU4LTAuMDU2LDAuMDg4LTAuMDgzICBjMC42NDUsMC40NTQsMS4wOTIsMC43NTQsMS4zNDQsMC45MjVjMC4wNzUtMC4xOTMsMC4xMjYtMC4zNzksMC4xNzktMC41NzNjLTAuMjY2LTAuMTk4LTAuNjI3LTAuNDc2LTEuMTQ4LTAuODk4ICBjMC4xNzEtMC40NDksMC4xMTctMC45NzQtMC4xOTUtMS4zODRjLTAuNDQ3LTAuNTc4LTEuMjM4LTAuNzI1LTEuODU2LTAuMzY4Yy0wLjY4MS0wLjYxMS0xLjQzLTEuMzEyLTIuMjE5LTIuMDk2ICBjMi40NTItMS4zMTksNC4xOTQtMS4xMjYsNC4xOTQtMS4xMjZjLTAuMjkxLTAuMzcxLTAuNjE3LTAuNjk2LTAuOTY1LTAuOTg5Yy0xLjAzNC0wLjE2LTIuNjQtMC4xNDItNC40NzYsMC44MzRsLTAuMDAxLTAuMDAxaDAgIGMtMC42MTItMC42NC0xLjIzNC0xLjMyNy0xLjg2OC0yLjA2M2MtMC4zMDMsMC4wOTctMC42LDAuMjE3LTAuODg2LDAuMzZjMC40NjgsMC43NjYsMS4wOTgsMS41MzgsMS44MDcsMi4yOTJsMCwwICBjMC4wMDEsMC4wMDIsMC4wMDMsMC4wMDMsMC4wMDUsMC4wMDVjLTAuNTkyLDAuNDE0LTEuMjUsMC45NjctMS44NTgsMS42MDljLTAuMDc4LDAuMDgzLTAuMTUyLDAuMTY2LTAuMjI1LDAuMjQ5ICBjLTAuMzYzLTAuMDc2LTAuNzQ1LTAuMDU0LTEuMTAyLDAuMDc1Yy0wLjYwNi0xLjMwNy0wLjU1Ny0yLjM1Ny0wLjQ2MS0yLjg5OGMtMC4yNjMsMC4yNzYtMC41MDksMC41NjUtMC43MiwwLjg3NCAgYy0wLjE1OCwwLjY0Ni0wLjIwMywxLjU3OCwwLjI2NCwyLjcwMWMtMC41NCwwLjcwNy0wLjU2NiwxLjcwOS0wLjAwMSwyLjQ0OWMwLjA0NywwLjA2MSwwLjA5NywwLjExOCwwLjE1LDAuMTczICBjLTAuMjQ2LDAuODM5LTAuMzU3LDEuNjQ5LTAuMzkxLDIuMzQ0YzAuMDYzLDAuMDg2LDAuMDYzLDAuMTU2LDAuMTI2LDAuMjRjMC4zMjEsMC40MTEsMC43MjQsMC43NTgsMS4xMTMsMS4wNzIgIGMtMC4wNDgtMC43MzYsMC4wMDQtMS44MjEsMC40NTktMy4wNDNjMC4zMTQsMC4wMjQsMC42MzMtMC4wMjYsMC45MzItMC4xNTFjMC4xNzEsMC4xNTEsMC4zNSwwLjMwMywwLjU0MiwwLjQ1OCAgYzAuNjU2LDAuNTIsMS4zMTEsMC45MjQsMS45NDksMS4yNDJjLTAuMDMzLDAuMzI1LDAuMDQ4LDAuNjYyLDAuMjU5LDAuOTQxYzAuNDUxLDAuNTgyLDEuMjg2LDAuNjkxLDEuODY4LDAuMjQ2ICBjMC4xMjEtMC4wOTMsMC4yMTctMC4yMDUsMC4yOTYtMC4zMjVjMS4wNDEsMC4yMzIsMS45NSwwLjI3MywyLjYyNCwwLjI3M2MwLjEwMywwLDAuNTgyLTAuNjUyLDAuODU3LTEuMDU2ICBjLTAuNDEsMC4wODYtMS42MjgsMC4yNTMtMy4yOTEtMC4yMjVjLTAuMDQtMC4xODctMC4xMTctMC4zNjgtMC4yNC0wLjUzYy0wLjQyMi0wLjU1NC0xLjE5NS0wLjY3NC0xLjc3MS0wLjMwMyAgYy0wLjU3OC0wLjMxNC0xLjE4NC0wLjcwNy0xLjgwOC0xLjIwMWMtMC4xMjYtMC4xLTAuMjQ3LTAuMTk5LTAuMzY0LTAuMjk5YzAuMzgyLTAuNjAxLDAuNDIyLTEuMzcyLDAuMDg1LTIuMDIgIGMwLjA3Ny0wLjA3NywwLjE1Mi0wLjE1MywwLjIzMy0wLjIyOWMwLjYxOC0wLjU3OCwxLjItMS4wNCwxLjc0NC0xLjQxMWMtMC4wMjItMC4wMi0wLjA0Mi0wLjA0Mi0wLjA2My0wLjA2MiAgYzAuMDIyLDAuMDIsMC4wNDIsMC4wNDEsMC4wNjQsMC4wNjFjMCwwLDAsMC0wLjAwMSwwYzAuODM1LDAuNzcyLDEuNzIsMS41MDQsMi41NTksMi4xNTggIEMyNy41MTQsMTIuNjIxLDI3LjU0OSwxMy4xOTQsMjcuODg2LDEzLjYzNXoiIGlkPSJwYXRoMzkwNSIvPiYjeGE7PC9zdmc+" parent="1" vertex="1">
                    <mxGeometry x="-936" y="490" width="50" height="50" as="geometry"/>
                </mxCell>
                <mxCell id="ejB2oqNJLONClBfcNZHo-43" style="edgeStyle=orthogonalEdgeStyle;rounded=0;orthogonalLoop=1;jettySize=auto;html=1;entryX=0.5;entryY=0;entryDx=0;entryDy=0;" parent="1" source="ejB2oqNJLONClBfcNZHo-24" target="ejB2oqNJLONClBfcNZHo-35" edge="1">
                    <mxGeometry relative="1" as="geometry"/>
                </mxCell>
                <mxCell id="ejB2oqNJLONClBfcNZHo-24" value="Developer Portal" style="shape=image;verticalLabelPosition=bottom;verticalAlign=top;imageAspect=0;aspect=fixed;image=data:image/svg+xml,PHN2ZyB4bWxuczpkYz0iaHR0cDovL3B1cmwub3JnL2RjL2VsZW1lbnRzLzEuMS8iIHhtbG5zOmNjPSJodHRwOi8vY3JlYXRpdmVjb21tb25zLm9yZy9ucyMiIHhtbG5zOnJkZj0iaHR0cDovL3d3dy53My5vcmcvMTk5OS8wMi8yMi1yZGYtc3ludGF4LW5zIyIgeG1sbnM6c3ZnPSJodHRwOi8vd3d3LnczLm9yZy8yMDAwL3N2ZyIgeG1sbnM9Imh0dHA6Ly93d3cudzMub3JnLzIwMDAvc3ZnIiB4bWxuczpzb2RpcG9kaT0iaHR0cDovL3NvZGlwb2RpLnNvdXJjZWZvcmdlLm5ldC9EVEQvc29kaXBvZGktMC5kdGQiIHhtbG5zOmlua3NjYXBlPSJodHRwOi8vd3d3Lmlua3NjYXBlLm9yZy9uYW1lc3BhY2VzL2lua3NjYXBlIiB2aWV3Qm94PSIwIDAgNTAgNTAiIGNsYXNzPSJmeHMtcG9ydGFsLXN2ZyIgcm9sZT0icHJlc2VudGF0aW9uIiBmb2N1c2FibGU9ImZhbHNlIiBpZD0iRnhTeW1ib2wwLTA1MSIgdmVyc2lvbj0iMS4xIiBzb2RpcG9kaTpkb2NuYW1lPSJBcHAgU2VydmljZXMuc3ZnIiBpbmtzY2FwZTp2ZXJzaW9uPSIwLjkyLjMgKDI0MDU1NDYsIDIwMTgtMDMtMTEpIj4mI3hhOyAgPG1ldGFkYXRhIGlkPSJtZXRhZGF0YTkxNyI+JiN4YTsgICAgPHJkZjpSREY+JiN4YTsgICAgICA8Y2M6V29yayByZGY6YWJvdXQ9IiI+JiN4YTsgICAgICAgIDxkYzpmb3JtYXQ+aW1hZ2Uvc3ZnK3htbDwvZGM6Zm9ybWF0PiYjeGE7ICAgICAgICA8ZGM6dHlwZSByZGY6cmVzb3VyY2U9Imh0dHA6Ly9wdXJsLm9yZy9kYy9kY21pdHlwZS9TdGlsbEltYWdlIi8+JiN4YTsgICAgICAgIDxkYzp0aXRsZS8+JiN4YTsgICAgICA8L2NjOldvcms+JiN4YTsgICAgPC9yZGY6UkRGPiYjeGE7ICA8L21ldGFkYXRhPiYjeGE7ICA8ZGVmcyBpZD0iZGVmczkxNSIvPiYjeGE7ICA8c29kaXBvZGk6bmFtZWR2aWV3IHBhZ2Vjb2xvcj0iI2ZmZmZmZiIgYm9yZGVyY29sb3I9IiM2NjY2NjYiIGJvcmRlcm9wYWNpdHk9IjEiIG9iamVjdHRvbGVyYW5jZT0iMTAiIGdyaWR0b2xlcmFuY2U9IjEwIiBndWlkZXRvbGVyYW5jZT0iMTAiIGlua3NjYXBlOnBhZ2VvcGFjaXR5PSIwIiBpbmtzY2FwZTpwYWdlc2hhZG93PSIyIiBpbmtzY2FwZTp3aW5kb3ctd2lkdGg9IjY0MCIgaW5rc2NhcGU6d2luZG93LWhlaWdodD0iNDgwIiBpZD0ibmFtZWR2aWV3OTEzIiBzaG93Z3JpZD0iZmFsc2UiIGlua3NjYXBlOnpvb209IjEzLjQiIGlua3NjYXBlOmN4PSIyNSIgaW5rc2NhcGU6Y3k9IjI1IiBpbmtzY2FwZTp3aW5kb3cteD0iMCIgaW5rc2NhcGU6d2luZG93LXk9IjAiIGlua3NjYXBlOndpbmRvdy1tYXhpbWl6ZWQ9IjEiIGlua3NjYXBlOmN1cnJlbnQtbGF5ZXI9IkZ4U3ltYm9sMC0wNTEiLz4mI3hhOyAgPGcgaWQ9Imc5MTAiPiYjeGE7ICAgIDx0aXRsZSBpZD0idGl0bGU5MDQiLz4mI3hhOyAgICA8cGF0aCBkPSJNNDAuMTkzIDQ0LjgzOWEyNC44OTggMjQuODk4IDAgMCAxLTE1LjE2NyA1LjE1MWMtNy41MiAwLTE0Ljk1Ni0zLjM3Ni0xOS44Ny05LjgwM0MtMy4yNCAyOS4yMjUtMS4xNjggMTMuNTQ4IDkuODE0IDUuMTQ4IDE0LjM0MyAxLjY2MyAxOS42ODYgMCAyNC45NzkgMGM3LjUyIDAgMTQuOTU4IDMuMzc2IDE5Ljg3IDkuODA5IDguMzk4IDEwLjk1OSA2LjMwNSAyNi42MzktNC42NTYgMzUuMDMiIGNsYXNzPSJtc3BvcnRhbGZ4LXN2Zy1jMTUiIGZpbGw9IiM1OWI0ZDkiIGlkPSJwYXRoOTA2Ii8+JiN4YTsgICAgPHBhdGggZD0iTTM1LjYgMjkuMzc4YTUuMzg1IDUuMzg1IDAgMCAwIDcuNTQxIDEuMDA0Yy4xMjMtLjA5NC4yMTgtLjIwOC4zMy0uMzA5IDIuNDA5IDEuNjk3IDQuMDgyIDIuODE3IDUuMDI1IDMuNDU5LjI3OS0uNzIzLjQ3Mi0xLjQxNy42Ny0yLjE0MmExMzAuODU3IDEzMC44NTcgMCAwIDEtNC4yOS0zLjM1NmMuNjM5LTEuNjguNDM3LTMuNjQtLjczLTUuMTcxYTUuMzYgNS4zNiAwIDAgMC02LjkzNi0xLjM3NyAyMjQuMzE3IDIyNC4zMTcgMCAwIDEtOC4yOTMtNy44MzNjOS4xNjUtNC45MjkgMTUuNjc2LTQuMjA3IDE1LjY3Ni00LjIwNy0xLjA4Ny0xLjM4Ni0yLjMwNS0yLjYtMy42MDYtMy42OTctMy44NjUtLjU5Ny05Ljg2OS0uNTMtMTYuNzI5IDMuMTE5bC0uMDAyLS4wMDNoLS4wMDFhMjAwLjMyMiAyMDAuMzIyIDAgMCAxLTYuOTgzLTcuNzEyQTIzLjI2NCAyMy4yNjQgMCAwIDAgMTMuOTYgMi41YzEuNzQ5IDIuODYyIDQuMTAyIDUuNzQ5IDYuNzU0IDguNTY1bC4wMTcuMDE3YTQ2LjI5MyA0Ni4yOTMgMCAwIDAtNi45NDQgNi4wMTVjLS4yOS4zMDktLjU2OS42Mi0uODQyLjkzMWE3LjU0NiA3LjU0NiAwIDAgMC00LjExNy4yODJDNi41NjQgMTMuNDI1IDYuNzQ2IDkuNTAxIDcuMTA0IDcuNDc4Yy0uOTgzIDEuMDMtMS45MDEgMi4xMTMtMi42OTIgMy4yNjctLjU5MSAyLjQxNS0uNzU5IDUuODk4Ljk4NSAxMC4wOTVhNy41MzggNy41MzggMCAwIDAtLjAwNSA5LjE1M2MuMTc2LjIyOS4zNjQuNDQyLjU1OS42NDVhMzcuODcgMzcuODcgMCAwIDAtMS40NiA4Ljc2MWMuMjM3LjMyMi4yMzcuNTgyLjQ3Mi44OTYgMS4xOTkgMS41MzggMi43MDUgMi44MzQgNC4xNiA0LjAwOC0uMTgtMi43NS4wMTQtNi44MDYgMS43MTQtMTEuMzcyYTcuNTA3IDcuNTA3IDAgMCAwIDMuNDgzLS41NjZjLjY0LjU2MyAxLjMxIDEuMTMyIDIuMDI1IDEuNzExYTQxLjY3MiA0MS42NzIgMCAwIDAgNy4yODUgNC42NDMgNC45NzQgNC45NzQgMCAwIDAgLjk2OCAzLjUxOCA0Ljk5OCA0Ljk5OCAwIDAgMCA2Ljk4My45MTkgNC45MTggNC45MTggMCAwIDAgMS4xMDgtMS4yMTZjMy44ODkuODY2IDcuMjg3IDEuMDE5IDkuODA2IDEuMDE5LjM4NiAwIDIuMTc3LTIuNDM2IDMuMjAzLTMuOTQ2LTEuNTM0LjMyMS02LjA4My45NDYtMTIuMy0uODRhNC45NTIgNC45NTIgMCAwIDAtLjg5OC0xLjk4Yy0xLjU3OS0yLjA3LTQuNDY2LTIuNTE4LTYuNjE4LTEuMTMzYTQ2Ljg1MyA0Ni44NTMgMCAwIDEtNi43NTgtNC40OSA0Ni40MjIgNDYuNDIyIDAgMCAxLTEuMzU5LTEuMTE4IDcuNTc4IDcuNTc4IDAgMCAwIC4zMTgtNy41NWMuMjg2LS4yODYuNTY3LS41NzMuODcxLS44NTcgMi4zMTEtMi4xNTkgNC40ODUtMy44ODcgNi41MTktNS4yNzQtLjA4Mi0uMDc2LS4xNTYtLjE1Ni0uMjM2LS4yMzMuMDgxLjA3NS4xNTcuMTUyLjIzOS4yMjdsLS4wMDIuMDAxYzMuMTIxIDIuODg2IDYuNDMgNS42MjEgOS41NjQgOC4wNjUtLjgyOSAxLjc1OC0uNjk5IDMuODk5LjU2MiA1LjU0N3oiIGNsYXNzPSJtc3BvcnRhbGZ4LXN2Zy1jMDEiIGZpbGw9IiNmZmZmZmYiIGlkPSJwYXRoOTA4Ii8+JiN4YTsgIDwvZz4mI3hhOzwvc3ZnPg==" parent="1" vertex="1">
                    <mxGeometry x="-936" y="360" width="50" height="50" as="geometry"/>
                </mxCell>
                <mxCell id="ejB2oqNJLONClBfcNZHo-25" value="Admin - Azure portal" style="shape=image;verticalLabelPosition=bottom;verticalAlign=top;imageAspect=0;aspect=fixed;image=data:image/svg+xml,PHN2ZyB4bWxuczpkYz0iaHR0cDovL3B1cmwub3JnL2RjL2VsZW1lbnRzLzEuMS8iIHhtbG5zOmNjPSJodHRwOi8vY3JlYXRpdmVjb21tb25zLm9yZy9ucyMiIHhtbG5zOnJkZj0iaHR0cDovL3d3dy53My5vcmcvMTk5OS8wMi8yMi1yZGYtc3ludGF4LW5zIyIgeG1sbnM6c3ZnPSJodHRwOi8vd3d3LnczLm9yZy8yMDAwL3N2ZyIgeG1sbnM9Imh0dHA6Ly93d3cudzMub3JnLzIwMDAvc3ZnIiB4bWxuczpzb2RpcG9kaT0iaHR0cDovL3NvZGlwb2RpLnNvdXJjZWZvcmdlLm5ldC9EVEQvc29kaXBvZGktMC5kdGQiIHhtbG5zOmlua3NjYXBlPSJodHRwOi8vd3d3Lmlua3NjYXBlLm9yZy9uYW1lc3BhY2VzL2lua3NjYXBlIiB2aWV3Qm94PSIwIDAgNTAgNTAiIGNsYXNzPSJmeHMtcG9ydGFsLXN2ZyIgcm9sZT0icHJlc2VudGF0aW9uIiBmb2N1c2FibGU9ImZhbHNlIiBpZD0iRnhTeW1ib2wwLTA1MSIgdmVyc2lvbj0iMS4xIiBzb2RpcG9kaTpkb2NuYW1lPSJBcHAgU2VydmljZXMuc3ZnIiBpbmtzY2FwZTp2ZXJzaW9uPSIwLjkyLjMgKDI0MDU1NDYsIDIwMTgtMDMtMTEpIj4mI3hhOyAgPG1ldGFkYXRhIGlkPSJtZXRhZGF0YTkxNyI+JiN4YTsgICAgPHJkZjpSREY+JiN4YTsgICAgICA8Y2M6V29yayByZGY6YWJvdXQ9IiI+JiN4YTsgICAgICAgIDxkYzpmb3JtYXQ+aW1hZ2Uvc3ZnK3htbDwvZGM6Zm9ybWF0PiYjeGE7ICAgICAgICA8ZGM6dHlwZSByZGY6cmVzb3VyY2U9Imh0dHA6Ly9wdXJsLm9yZy9kYy9kY21pdHlwZS9TdGlsbEltYWdlIi8+JiN4YTsgICAgICAgIDxkYzp0aXRsZS8+JiN4YTsgICAgICA8L2NjOldvcms+JiN4YTsgICAgPC9yZGY6UkRGPiYjeGE7ICA8L21ldGFkYXRhPiYjeGE7ICA8ZGVmcyBpZD0iZGVmczkxNSIvPiYjeGE7ICA8c29kaXBvZGk6bmFtZWR2aWV3IHBhZ2Vjb2xvcj0iI2ZmZmZmZiIgYm9yZGVyY29sb3I9IiM2NjY2NjYiIGJvcmRlcm9wYWNpdHk9IjEiIG9iamVjdHRvbGVyYW5jZT0iMTAiIGdyaWR0b2xlcmFuY2U9IjEwIiBndWlkZXRvbGVyYW5jZT0iMTAiIGlua3NjYXBlOnBhZ2VvcGFjaXR5PSIwIiBpbmtzY2FwZTpwYWdlc2hhZG93PSIyIiBpbmtzY2FwZTp3aW5kb3ctd2lkdGg9IjY0MCIgaW5rc2NhcGU6d2luZG93LWhlaWdodD0iNDgwIiBpZD0ibmFtZWR2aWV3OTEzIiBzaG93Z3JpZD0iZmFsc2UiIGlua3NjYXBlOnpvb209IjEzLjQiIGlua3NjYXBlOmN4PSIyNSIgaW5rc2NhcGU6Y3k9IjI1IiBpbmtzY2FwZTp3aW5kb3cteD0iMCIgaW5rc2NhcGU6d2luZG93LXk9IjAiIGlua3NjYXBlOndpbmRvdy1tYXhpbWl6ZWQ9IjEiIGlua3NjYXBlOmN1cnJlbnQtbGF5ZXI9IkZ4U3ltYm9sMC0wNTEiLz4mI3hhOyAgPGcgaWQ9Imc5MTAiPiYjeGE7ICAgIDx0aXRsZSBpZD0idGl0bGU5MDQiLz4mI3hhOyAgICA8cGF0aCBkPSJNNDAuMTkzIDQ0LjgzOWEyNC44OTggMjQuODk4IDAgMCAxLTE1LjE2NyA1LjE1MWMtNy41MiAwLTE0Ljk1Ni0zLjM3Ni0xOS44Ny05LjgwM0MtMy4yNCAyOS4yMjUtMS4xNjggMTMuNTQ4IDkuODE0IDUuMTQ4IDE0LjM0MyAxLjY2MyAxOS42ODYgMCAyNC45NzkgMGM3LjUyIDAgMTQuOTU4IDMuMzc2IDE5Ljg3IDkuODA5IDguMzk4IDEwLjk1OSA2LjMwNSAyNi42MzktNC42NTYgMzUuMDMiIGNsYXNzPSJtc3BvcnRhbGZ4LXN2Zy1jMTUiIGZpbGw9IiM1OWI0ZDkiIGlkPSJwYXRoOTA2Ii8+JiN4YTsgICAgPHBhdGggZD0iTTM1LjYgMjkuMzc4YTUuMzg1IDUuMzg1IDAgMCAwIDcuNTQxIDEuMDA0Yy4xMjMtLjA5NC4yMTgtLjIwOC4zMy0uMzA5IDIuNDA5IDEuNjk3IDQuMDgyIDIuODE3IDUuMDI1IDMuNDU5LjI3OS0uNzIzLjQ3Mi0xLjQxNy42Ny0yLjE0MmExMzAuODU3IDEzMC44NTcgMCAwIDEtNC4yOS0zLjM1NmMuNjM5LTEuNjguNDM3LTMuNjQtLjczLTUuMTcxYTUuMzYgNS4zNiAwIDAgMC02LjkzNi0xLjM3NyAyMjQuMzE3IDIyNC4zMTcgMCAwIDEtOC4yOTMtNy44MzNjOS4xNjUtNC45MjkgMTUuNjc2LTQuMjA3IDE1LjY3Ni00LjIwNy0xLjA4Ny0xLjM4Ni0yLjMwNS0yLjYtMy42MDYtMy42OTctMy44NjUtLjU5Ny05Ljg2OS0uNTMtMTYuNzI5IDMuMTE5bC0uMDAyLS4wMDNoLS4wMDFhMjAwLjMyMiAyMDAuMzIyIDAgMCAxLTYuOTgzLTcuNzEyQTIzLjI2NCAyMy4yNjQgMCAwIDAgMTMuOTYgMi41YzEuNzQ5IDIuODYyIDQuMTAyIDUuNzQ5IDYuNzU0IDguNTY1bC4wMTcuMDE3YTQ2LjI5MyA0Ni4yOTMgMCAwIDAtNi45NDQgNi4wMTVjLS4yOS4zMDktLjU2OS42Mi0uODQyLjkzMWE3LjU0NiA3LjU0NiAwIDAgMC00LjExNy4yODJDNi41NjQgMTMuNDI1IDYuNzQ2IDkuNTAxIDcuMTA0IDcuNDc4Yy0uOTgzIDEuMDMtMS45MDEgMi4xMTMtMi42OTIgMy4yNjctLjU5MSAyLjQxNS0uNzU5IDUuODk4Ljk4NSAxMC4wOTVhNy41MzggNy41MzggMCAwIDAtLjAwNSA5LjE1M2MuMTc2LjIyOS4zNjQuNDQyLjU1OS42NDVhMzcuODcgMzcuODcgMCAwIDAtMS40NiA4Ljc2MWMuMjM3LjMyMi4yMzcuNTgyLjQ3Mi44OTYgMS4xOTkgMS41MzggMi43MDUgMi44MzQgNC4xNiA0LjAwOC0uMTgtMi43NS4wMTQtNi44MDYgMS43MTQtMTEuMzcyYTcuNTA3IDcuNTA3IDAgMCAwIDMuNDgzLS41NjZjLjY0LjU2MyAxLjMxIDEuMTMyIDIuMDI1IDEuNzExYTQxLjY3MiA0MS42NzIgMCAwIDAgNy4yODUgNC42NDMgNC45NzQgNC45NzQgMCAwIDAgLjk2OCAzLjUxOCA0Ljk5OCA0Ljk5OCAwIDAgMCA2Ljk4My45MTkgNC45MTggNC45MTggMCAwIDAgMS4xMDgtMS4yMTZjMy44ODkuODY2IDcuMjg3IDEuMDE5IDkuODA2IDEuMDE5LjM4NiAwIDIuMTc3LTIuNDM2IDMuMjAzLTMuOTQ2LTEuNTM0LjMyMS02LjA4My45NDYtMTIuMy0uODRhNC45NTIgNC45NTIgMCAwIDAtLjg5OC0xLjk4Yy0xLjU3OS0yLjA3LTQuNDY2LTIuNTE4LTYuNjE4LTEuMTMzYTQ2Ljg1MyA0Ni44NTMgMCAwIDEtNi43NTgtNC40OSA0Ni40MjIgNDYuNDIyIDAgMCAxLTEuMzU5LTEuMTE4IDcuNTc4IDcuNTc4IDAgMCAwIC4zMTgtNy41NWMuMjg2LS4yODYuNTY3LS41NzMuODcxLS44NTcgMi4zMTEtMi4xNTkgNC40ODUtMy44ODcgNi41MTktNS4yNzQtLjA4Mi0uMDc2LS4xNTYtLjE1Ni0uMjM2LS4yMzMuMDgxLjA3NS4xNTcuMTUyLjIzOS4yMjdsLS4wMDIuMDAxYzMuMTIxIDIuODg2IDYuNDMgNS42MjEgOS41NjQgOC4wNjUtLjgyOSAxLjc1OC0uNjk5IDMuODk5LjU2MiA1LjU0N3oiIGNsYXNzPSJtc3BvcnRhbGZ4LXN2Zy1jMDEiIGZpbGw9IiNmZmZmZmYiIGlkPSJwYXRoOTA4Ii8+JiN4YTsgIDwvZz4mI3hhOzwvc3ZnPg==" parent="1" vertex="1">
                    <mxGeometry x="-936.5" y="620" width="50" height="50" as="geometry"/>
                </mxCell>
                <mxCell id="ejB2oqNJLONClBfcNZHo-36" style="edgeStyle=orthogonalEdgeStyle;rounded=0;orthogonalLoop=1;jettySize=auto;html=1;entryX=0;entryY=0.5;entryDx=0;entryDy=0;" parent="1" source="ejB2oqNJLONClBfcNZHo-28" target="ejB2oqNJLONClBfcNZHo-35" edge="1">
                    <mxGeometry relative="1" as="geometry"/>
                </mxCell>
                <mxCell id="ejB2oqNJLONClBfcNZHo-41" value="Oauth2/OpenIDConnect" style="edgeLabel;html=1;align=center;verticalAlign=middle;resizable=0;points=[];" parent="ejB2oqNJLONClBfcNZHo-36" vertex="1" connectable="0">
                    <mxGeometry x="0.2673" y="1" relative="1" as="geometry">
                        <mxPoint as="offset"/>
                    </mxGeometry>
                </mxCell>
                <mxCell id="26" style="edgeStyle=orthogonalEdgeStyle;rounded=0;orthogonalLoop=1;jettySize=auto;html=1;entryX=0;entryY=0.5;entryDx=0;entryDy=0;" parent="1" source="ejB2oqNJLONClBfcNZHo-28" edge="1">
                    <mxGeometry relative="1" as="geometry">
                        <Array as="points">
                            <mxPoint x="-1440" y="375"/>
                            <mxPoint x="-1440" y="765"/>
                        </Array>
                        <mxPoint x="-1290" y="765" as="targetPoint"/>
                    </mxGeometry>
                </mxCell>
                <mxCell id="ejB2oqNJLONClBfcNZHo-28" value="&lt;br&gt;&lt;br&gt;&lt;br&gt;&lt;br&gt;&lt;br&gt;&lt;br&gt;&lt;br&gt;&lt;br&gt;&lt;br&gt;&lt;br&gt;&lt;br&gt;&lt;br&gt;&lt;br&gt;&lt;br&gt;&lt;br&gt;&lt;br&gt;&lt;br&gt;&lt;br&gt;" style="rounded=1;whiteSpace=wrap;html=1;" parent="1" vertex="1">
                    <mxGeometry x="-1896" y="216" width="243" height="310" as="geometry"/>
                </mxCell>
                <mxCell id="ejB2oqNJLONClBfcNZHo-29" value="Consumers" style="text;html=1;resizable=0;autosize=1;align=center;verticalAlign=middle;points=[];fillColor=none;strokeColor=none;rounded=0;" parent="1" vertex="1">
                    <mxGeometry x="-1783.5" y="235" width="80" height="20" as="geometry"/>
                </mxCell>
                <mxCell id="ejB2oqNJLONClBfcNZHo-30" value="All apis" style="shape=image;verticalLabelPosition=bottom;verticalAlign=top;imageAspect=0;aspect=fixed;image=data:image/svg+xml,PHN2ZyB4bWxuczpkYz0iaHR0cDovL3B1cmwub3JnL2RjL2VsZW1lbnRzLzEuMS8iIHhtbG5zOmNjPSJodHRwOi8vY3JlYXRpdmVjb21tb25zLm9yZy9ucyMiIHhtbG5zOnJkZj0iaHR0cDovL3d3dy53My5vcmcvMTk5OS8wMi8yMi1yZGYtc3ludGF4LW5zIyIgeG1sbnM6c3ZnPSJodHRwOi8vd3d3LnczLm9yZy8yMDAwL3N2ZyIgeG1sbnM9Imh0dHA6Ly93d3cudzMub3JnLzIwMDAvc3ZnIiB4bWxuczpzb2RpcG9kaT0iaHR0cDovL3NvZGlwb2RpLnNvdXJjZWZvcmdlLm5ldC9EVEQvc29kaXBvZGktMC5kdGQiIHhtbG5zOmlua3NjYXBlPSJodHRwOi8vd3d3Lmlua3NjYXBlLm9yZy9uYW1lc3BhY2VzL2lua3NjYXBlIiB2ZXJzaW9uPSIxLjEiIGlkPSJMYXllcl8xIiB4PSIwcHgiIHk9IjBweCIgd2lkdGg9IjUwcHgiIGhlaWdodD0iNTBweCIgdmlld0JveD0iMCAwIDUwIDUwIiBlbmFibGUtYmFja2dyb3VuZD0ibmV3IDAgMCA1MCA1MCIgeG1sOnNwYWNlPSJwcmVzZXJ2ZSIgc29kaXBvZGk6ZG9jbmFtZT0iVk0uc3ZnIiBpbmtzY2FwZTp2ZXJzaW9uPSIwLjkyLjMgKDI0MDU1NDYsIDIwMTgtMDMtMTEpIj48bWV0YWRhdGEgaWQ9Im1ldGFkYXRhMTY1MiI+PHJkZjpSREY+PGNjOldvcmsgcmRmOmFib3V0PSIiPjxkYzpmb3JtYXQ+aW1hZ2Uvc3ZnK3htbDwvZGM6Zm9ybWF0PjxkYzp0eXBlIHJkZjpyZXNvdXJjZT0iaHR0cDovL3B1cmwub3JnL2RjL2RjbWl0eXBlL1N0aWxsSW1hZ2UiLz48ZGM6dGl0bGUvPjwvY2M6V29yaz48L3JkZjpSREY+PC9tZXRhZGF0YT48ZGVmcyBpZD0iZGVmczE2NTAiLz48c29kaXBvZGk6bmFtZWR2aWV3IHBhZ2Vjb2xvcj0iI2ZmZmZmZiIgYm9yZGVyY29sb3I9IiM2NjY2NjYiIGJvcmRlcm9wYWNpdHk9IjEiIG9iamVjdHRvbGVyYW5jZT0iMTAiIGdyaWR0b2xlcmFuY2U9IjEwIiBndWlkZXRvbGVyYW5jZT0iMTAiIGlua3NjYXBlOnBhZ2VvcGFjaXR5PSIwIiBpbmtzY2FwZTpwYWdlc2hhZG93PSIyIiBpbmtzY2FwZTp3aW5kb3ctd2lkdGg9IjY0MCIgaW5rc2NhcGU6d2luZG93LWhlaWdodD0iNDgwIiBpZD0ibmFtZWR2aWV3MTY0OCIgc2hvd2dyaWQ9ImZhbHNlIiBpbmtzY2FwZTp6b29tPSI2LjI2IiBpbmtzY2FwZTpjeD0iMjUiIGlua3NjYXBlOmN5PSIyNSIgaW5rc2NhcGU6d2luZG93LXg9IjAiIGlua3NjYXBlOndpbmRvdy15PSIwIiBpbmtzY2FwZTp3aW5kb3ctbWF4aW1pemVkPSIxIiBpbmtzY2FwZTpjdXJyZW50LWxheWVyPSJMYXllcl8xIi8+JiN4YTs8cGF0aCBmaWxsPSIjN0E3QTdBIiBkPSJNMzMsMzhoLTEuMjA3SDE5Ljg5MmgtMC42MjFDMjAuOTIsNDMuOTk5LDE4LjcwNSw0NC44NTksOSw0NC44NTlWNDhoMTIuMzQyaDkuMDExSDQydi0zLjE0MSAgYy05LjcwNSwwLTEwLjY1Ni0wLjg1Ny05LjAwNS02Ljg1OSIgaWQ9InBhdGgxNjI5Ii8+JiN4YTs8cGF0aCBmaWxsPSIjQTBBMUEyIiBkPSJNNDYuOTgsMkgyLjcxOUMxLjIxNSwyLDAuMDAyLDMuMzQ1LDAuMDAyLDQuODQ3djMxLjMyOWMwLDEuNDkzLDEuMjEzLDIuODIzLDIuNzE3LDIuODIzSDQ2Ljk4ICBjMS41MDEsMCwzLjAyMS0xLjMzLDMuMDIxLTIuODIzVjQuODQ3QzUwLjAwMSwzLjM0MSw0OC40ODEsMiw0Ni45OCwyIiBpZD0icGF0aDE2MzEiLz4mI3hhOzxwYXRoIG9wYWNpdHk9IjAuMiIgZmlsbD0iI0ZGRkZGRiIgZW5hYmxlLWJhY2tncm91bmQ9Im5ldyAgICAiIGQ9Ik00Ny4wMTEsMi4wMDNjLTAuMDExLDAtMC4wMjEtMC4wMDItMC4wMzEtMC4wMDJIMi43MTggIGMtMS41MDQsMC0yLjcxNywxLjM0NC0yLjcxNywyLjg0N3YzMS4zMjhDMC4wMDEsMzcuNjcsMS4yMTQsMzksMi43MTgsMzloMS4wNTNMNDcuMDExLDIuMDAzeiIgaWQ9InBhdGgxNjMzIi8+JiN4YTs8cG9seWdvbiBmaWxsPSIjNTlCNEQ5IiBwb2ludHM9IjQ2LDYgNDYsMzUgNCwzNSA0LDYgIiBpZD0icG9seWdvbjE2MzUiLz4mI3hhOzxyZWN0IHg9IjkiIHk9IjQ1IiBmaWxsPSIjQTBBMUEyIiB3aWR0aD0iMzMiIGhlaWdodD0iMyIgaWQ9InJlY3QxNjM3Ii8+JiN4YTs8cGF0aCBmaWxsPSIjQjhENDMyIiBkPSJNMjUuNTE4LDQuMDk1YzAsMC4zOTItMC4zMTgsMC43MS0wLjcxLDAuNzFjLTAuMzkzLDAtMC43MDktMC4zMTgtMC43MDktMC43MWMwLTAuMzkzLDAuMzE2LTAuNzEsMC43MDktMC43MSAgQzI1LjIsMy4zODUsMjUuNTE4LDMuNzAyLDI1LjUxOCw0LjA5NSIgaWQ9InBhdGgxNjM5Ii8+JiN4YTs8cGF0aCBmaWxsPSIjRkZGRkZGIiBkPSJNMjUuMDI4LDE5LjM5NGMtMC4wNDUsMC0wLjA5MS0wLjAxNC0wLjEzNC0wLjAzOGwtOC44MDQtNS4wODJjLTAuMDgxLTAuMDQ4LTAuMTMyLTAuMTM3LTAuMTMyLTAuMjMxICBjMC0wLjA5NSwwLjA1MS0wLjE4MywwLjEzMi0wLjIzbDguNzUxLTUuMDQ5YzAuMDgyLTAuMDQ2LDAuMTgyLTAuMDQ2LDAuMjYzLDBsOC44MDcsNS4wODRjMC4wODIsMC4wNDcsMC4xMzEsMC4xMzUsMC4xMzEsMC4yMyAgYzAsMC4wOTYtMC4wNDksMC4xODMtMC4xMzEsMC4yM2wtOC43NDgsNS4wNDhDMjUuMTIsMTkuMzgsMjUuMDc2LDE5LjM5NCwyNS4wMjgsMTkuMzk0IiBpZD0icGF0aDE2NDEiLz4mI3hhOzxwYXRoIG9wYWNpdHk9IjAuNyIgZmlsbD0iI0ZGRkZGRiIgZW5hYmxlLWJhY2tncm91bmQ9Im5ldyAgICAiIGQ9Ik0yMy43NjMsMzEuNzQ2Yy0wLjA1LDAtMC4wOTUtMC4wMTItMC4xMzQtMC4wMzZsLTguNzc4LTUuMDY2ICBjLTAuMDg1LTAuMDQ3LTAuMTM2LTAuMTMzLTAuMTM2LTAuMjMxVjE2LjI0N2MwLTAuMDk2LDAuMDUxLTAuMTgzLDAuMTM2LTAuMjMxYzAuMDgxLTAuMDQ5LDAuMTgxLTAuMDQ5LDAuMjY4LDBsOC43NzcsNS4wNjQgIGMwLjA3OCwwLjA1LDAuMTMsMC4xMzcsMC4xMywwLjIzM3YxMC4xNjZjMCwwLjA5Ny0wLjA1MiwwLjE4My0wLjEzLDAuMjMxQzIzLjg1MiwzMS43MzQsMjMuODA2LDMxLjc0NiwyMy43NjMsMzEuNzQ2IiBpZD0icGF0aDE2NDMiLz4mI3hhOzxwYXRoIG9wYWNpdHk9IjAuNCIgZmlsbD0iI0ZGRkZGRiIgZW5hYmxlLWJhY2tncm91bmQ9Im5ldyAgICAiIGQ9Ik0yNi4yNDgsMzEuNzQ2Yy0wLjA0OCwwLTAuMDkzLTAuMDEyLTAuMTM4LTAuMDM2ICBjLTAuMDc4LTAuMDQ4LTAuMTI5LTAuMTM0LTAuMTI5LTAuMjMxVjIxLjM3N2MwLTAuMDk0LDAuMDUxLTAuMTgyLDAuMTI5LTAuMjMxbDguNzc3LTUuMDY0YzAuMDg0LTAuMDQ4LDAuMTgyLTAuMDQ4LDAuMjY0LDAgIGMwLjA4NCwwLjA0NywwLjEzNSwwLjEzNSwwLjEzNSwwLjIzdjEwLjEwMWMwLDAuMDk4LTAuMDUxLDAuMTg0LTAuMTM1LDAuMjMxbC04Ljc3NCw1LjA2NiAgQzI2LjM0LDMxLjczNCwyNi4yOTQsMzEuNzQ2LDI2LjI0OCwzMS43NDYiIGlkPSJwYXRoMTY0NSIvPiYjeGE7PC9zdmc+" parent="1" vertex="1">
                    <mxGeometry x="-368" y="940" width="50" height="50" as="geometry"/>
                </mxCell>
                <mxCell id="ejB2oqNJLONClBfcNZHo-31" value="&#10;Internal developers" style="shape=image;verticalLabelPosition=bottom;verticalAlign=top;imageAspect=0;aspect=fixed;image=data:image/svg+xml,PHN2ZyB4bWxuczpkYz0iaHR0cDovL3B1cmwub3JnL2RjL2VsZW1lbnRzLzEuMS8iIHhtbG5zOmNjPSJodHRwOi8vY3JlYXRpdmVjb21tb25zLm9yZy9ucyMiIHhtbG5zOnJkZj0iaHR0cDovL3d3dy53My5vcmcvMTk5OS8wMi8yMi1yZGYtc3ludGF4LW5zIyIgeG1sbnM6c3ZnPSJodHRwOi8vd3d3LnczLm9yZy8yMDAwL3N2ZyIgeG1sbnM9Imh0dHA6Ly93d3cudzMub3JnLzIwMDAvc3ZnIiB4bWxuczpzb2RpcG9kaT0iaHR0cDovL3NvZGlwb2RpLnNvdXJjZWZvcmdlLm5ldC9EVEQvc29kaXBvZGktMC5kdGQiIHhtbG5zOmlua3NjYXBlPSJodHRwOi8vd3d3Lmlua3NjYXBlLm9yZy9uYW1lc3BhY2VzL2lua3NjYXBlIiB2aWV3Qm94PSIwIDAgNTAgNTAiIHZlcnNpb249IjEuMSIgaWQ9InN2ZzgzMiIgc29kaXBvZGk6ZG9jbmFtZT0iU29mdHdhcmUgYXMgYSBTZXJ2aWNlIChTYWFTKS5zdmciIGlua3NjYXBlOnZlcnNpb249IjAuOTIuMyAoMjQwNTU0NiwgMjAxOC0wMy0xMSkiPiYjeGE7ICA8bWV0YWRhdGEgaWQ9Im1ldGFkYXRhODM4Ij4mI3hhOyAgICA8cmRmOlJERj4mI3hhOyAgICAgIDxjYzpXb3JrIHJkZjphYm91dD0iIj4mI3hhOyAgICAgICAgPGRjOmZvcm1hdD5pbWFnZS9zdmcreG1sPC9kYzpmb3JtYXQ+JiN4YTsgICAgICAgIDxkYzp0eXBlIHJkZjpyZXNvdXJjZT0iaHR0cDovL3B1cmwub3JnL2RjL2RjbWl0eXBlL1N0aWxsSW1hZ2UiLz4mI3hhOyAgICAgICAgPGRjOnRpdGxlLz4mI3hhOyAgICAgIDwvY2M6V29yaz4mI3hhOyAgICA8L3JkZjpSREY+JiN4YTsgIDwvbWV0YWRhdGE+JiN4YTsgIDxkZWZzIGlkPSJkZWZzODM2Ii8+JiN4YTsgIDxzb2RpcG9kaTpuYW1lZHZpZXcgcGFnZWNvbG9yPSIjZmZmZmZmIiBib3JkZXJjb2xvcj0iIzY2NjY2NiIgYm9yZGVyb3BhY2l0eT0iMSIgb2JqZWN0dG9sZXJhbmNlPSIxMCIgZ3JpZHRvbGVyYW5jZT0iMTAiIGd1aWRldG9sZXJhbmNlPSIxMCIgaW5rc2NhcGU6cGFnZW9wYWNpdHk9IjAiIGlua3NjYXBlOnBhZ2VzaGFkb3c9IjIiIGlua3NjYXBlOndpbmRvdy13aWR0aD0iNjQwIiBpbmtzY2FwZTp3aW5kb3ctaGVpZ2h0PSI0ODAiIGlkPSJuYW1lZHZpZXc4MzQiIHNob3dncmlkPSJmYWxzZSIgaW5rc2NhcGU6em9vbT0iNi4yNiIgaW5rc2NhcGU6Y3g9IjI1IiBpbmtzY2FwZTpjeT0iMjUiIGlua3NjYXBlOndpbmRvdy14PSIwIiBpbmtzY2FwZTp3aW5kb3cteT0iMCIgaW5rc2NhcGU6d2luZG93LW1heGltaXplZD0iMSIgaW5rc2NhcGU6Y3VycmVudC1sYXllcj0ic3ZnODMyIi8+JiN4YTsgIDxwYXRoIGQ9Ik00MS4zNjQgMTUuMjA1Yy4wMjctLjM0My4wNTMtLjY4Ni4wNTMtMS4wMzYgMC03LjI0NS01Ljk3My0xMy4xMTktMTMuMzQyLTEzLjExOS01Ljk0OCAwLTEwLjk4MiAzLjgyOS0xMi43MDQgOS4xMTVhMTIuMTIxIDEyLjEyMSAwIDAgMC0yLjIyMi0uMjI0Yy02LjYgMC0xMS45NSA1LjE1MS0xMS45NSAxMS41MDQgMCA2LjM1NCA1LjM1IDExLjUwNCAxMS45NSAxMS41MDRoMjYuNTU2YzUuMTMzIDAgOS4yOTQtNC4wMDYgOS4yOTQtOC45NDguMDAxLTQuMzk1LTMuMjk0LTguMDQyLTcuNjM1LTguNzk2eiIgY2xhc3M9Im1zcG9ydGFsZngtc3ZnLWMxNSIgZmlsbD0iIzU5YjRkOSIgaWQ9InBhdGg4MjAiLz4mI3hhOyAgPHBhdGggb3BhY2l0eT0iLjQiIGQ9Ik0xNSAzM1YxNy4wNzhjMC0xLjE0NS45MzMtMi4wNzggMi4wNzgtMi4wNzhoMTcuODQ0YzEuMTQ1IDAgMi4wNzguOTMzIDIuMDc4IDIuMDc4VjMzSDE1eiIgY2xhc3M9Im1zcG9ydGFsZngtc3ZnLWMwMSIgZmlsbD0iI2ZmZiIgaWQ9InBhdGg4MjIiLz4mI3hhOyAgPHBhdGggZD0iTTM0LjkyMiAxNkgxNy4wNzhjLS41OTUgMC0xLjA3OC40ODMtMS4wNzggMS4wNzh2MzAuODQzYzAgLjU5Ni40ODMgMS4wNzkgMS4wNzggMS4wNzloMTcuODQzYy41OTYgMCAxLjA3OS0uNDgzIDEuMDc5LTEuMDc4VjE3LjA3OGMwLS41OTUtLjQ4My0xLjA3OC0xLjA3OC0xLjA3OHoiIGNsYXNzPSJtc3BvcnRhbGZ4LXN2Zy1jMDQiIGZpbGw9IiM3YTdhN2EiIGlkPSJwYXRoODI0Ii8+JiN4YTsgIDxwYXRoIG9wYWNpdHk9Ii40IiBkPSJNMzQuOTIyIDE2SDI4TDE2IDQzdjQuOTIyYzAgLjU5NS40ODMgMS4wNzggMS4wNzggMS4wNzhoMTcuODQzYy41OTYgMCAxLjA3OS0uNDgzIDEuMDc5LTEuMDc4VjE3LjA3OGMwLS41OTUtLjQ4My0xLjA3OC0xLjA3OC0xLjA3OHoiIGNsYXNzPSJtc3BvcnRhbGZ4LXN2Zy1jMDYiIGZpbGw9IiMxZTFlMWUiIGlkPSJwYXRoODI2Ii8+JiN4YTsgIDxwYXRoIGQ9Ik0xOCAxOWg0djVoLTR6bTYgMGg0djVoLTR6bTYgMGg0djVoLTR6bS0xMiA4aDR2NWgtNHptNiAwaDR2NWgtNHptNiAwaDR2NWgtNHptLTEyIDhoNHY1aC00em02IDBoNHY1aC00em0wIDhoNHY2aC00em02LThoNHY1aC00eiIgY2xhc3M9Im1zcG9ydGFsZngtc3ZnLWMwMSIgZmlsbD0iI2ZmZiIgaWQ9InBhdGg4MjgiLz4mI3hhOyAgPHBhdGggZD0iTTE4IDE5aDR2NWgtNHptNiAwaDR2NWgtNHptNiAwaDR2NWgtNHptLTEyIDhoNHY1aC00em02IDBoNHY1aC00em02IDBoNHY1aC00em0tMTIgOGg0djVoLTR6bTYgMGg0djVoLTR6bTAgOGg0djZoLTR6bTYtOGg0djVoLTR6IiBvcGFjaXR5PSIuMTUiIGNsYXNzPSJtc3BvcnRhbGZ4LXN2Zy1jMTUiIGZpbGw9IiM1OWI0ZDkiIGlkPSJwYXRoODMwIi8+JiN4YTs8L3N2Zz4=" parent="1" vertex="1">
                    <mxGeometry x="-1803" y="293" width="50" height="50" as="geometry"/>
                </mxCell>
                <mxCell id="ejB2oqNJLONClBfcNZHo-32" value="Third party apps" style="shape=image;verticalLabelPosition=bottom;verticalAlign=top;imageAspect=0;aspect=fixed;image=data:image/svg+xml,PHN2ZyB4bWxuczpkYz0iaHR0cDovL3B1cmwub3JnL2RjL2VsZW1lbnRzLzEuMS8iIHhtbG5zOmNjPSJodHRwOi8vY3JlYXRpdmVjb21tb25zLm9yZy9ucyMiIHhtbG5zOnJkZj0iaHR0cDovL3d3dy53My5vcmcvMTk5OS8wMi8yMi1yZGYtc3ludGF4LW5zIyIgeG1sbnM6c3ZnPSJodHRwOi8vd3d3LnczLm9yZy8yMDAwL3N2ZyIgeG1sbnM9Imh0dHA6Ly93d3cudzMub3JnLzIwMDAvc3ZnIiB4bWxuczpzb2RpcG9kaT0iaHR0cDovL3NvZGlwb2RpLnNvdXJjZWZvcmdlLm5ldC9EVEQvc29kaXBvZGktMC5kdGQiIHhtbG5zOmlua3NjYXBlPSJodHRwOi8vd3d3Lmlua3NjYXBlLm9yZy9uYW1lc3BhY2VzL2lua3NjYXBlIiB2aWV3Qm94PSIwIDAgNTAgNTAiIHZlcnNpb249IjEuMSIgaWQ9InN2ZzgzMiIgc29kaXBvZGk6ZG9jbmFtZT0iU29mdHdhcmUgYXMgYSBTZXJ2aWNlIChTYWFTKS5zdmciIGlua3NjYXBlOnZlcnNpb249IjAuOTIuMyAoMjQwNTU0NiwgMjAxOC0wMy0xMSkiPiYjeGE7ICA8bWV0YWRhdGEgaWQ9Im1ldGFkYXRhODM4Ij4mI3hhOyAgICA8cmRmOlJERj4mI3hhOyAgICAgIDxjYzpXb3JrIHJkZjphYm91dD0iIj4mI3hhOyAgICAgICAgPGRjOmZvcm1hdD5pbWFnZS9zdmcreG1sPC9kYzpmb3JtYXQ+JiN4YTsgICAgICAgIDxkYzp0eXBlIHJkZjpyZXNvdXJjZT0iaHR0cDovL3B1cmwub3JnL2RjL2RjbWl0eXBlL1N0aWxsSW1hZ2UiLz4mI3hhOyAgICAgICAgPGRjOnRpdGxlLz4mI3hhOyAgICAgIDwvY2M6V29yaz4mI3hhOyAgICA8L3JkZjpSREY+JiN4YTsgIDwvbWV0YWRhdGE+JiN4YTsgIDxkZWZzIGlkPSJkZWZzODM2Ii8+JiN4YTsgIDxzb2RpcG9kaTpuYW1lZHZpZXcgcGFnZWNvbG9yPSIjZmZmZmZmIiBib3JkZXJjb2xvcj0iIzY2NjY2NiIgYm9yZGVyb3BhY2l0eT0iMSIgb2JqZWN0dG9sZXJhbmNlPSIxMCIgZ3JpZHRvbGVyYW5jZT0iMTAiIGd1aWRldG9sZXJhbmNlPSIxMCIgaW5rc2NhcGU6cGFnZW9wYWNpdHk9IjAiIGlua3NjYXBlOnBhZ2VzaGFkb3c9IjIiIGlua3NjYXBlOndpbmRvdy13aWR0aD0iNjQwIiBpbmtzY2FwZTp3aW5kb3ctaGVpZ2h0PSI0ODAiIGlkPSJuYW1lZHZpZXc4MzQiIHNob3dncmlkPSJmYWxzZSIgaW5rc2NhcGU6em9vbT0iNi4yNiIgaW5rc2NhcGU6Y3g9IjI1IiBpbmtzY2FwZTpjeT0iMjUiIGlua3NjYXBlOndpbmRvdy14PSIwIiBpbmtzY2FwZTp3aW5kb3cteT0iMCIgaW5rc2NhcGU6d2luZG93LW1heGltaXplZD0iMSIgaW5rc2NhcGU6Y3VycmVudC1sYXllcj0ic3ZnODMyIi8+JiN4YTsgIDxwYXRoIGQ9Ik00MS4zNjQgMTUuMjA1Yy4wMjctLjM0My4wNTMtLjY4Ni4wNTMtMS4wMzYgMC03LjI0NS01Ljk3My0xMy4xMTktMTMuMzQyLTEzLjExOS01Ljk0OCAwLTEwLjk4MiAzLjgyOS0xMi43MDQgOS4xMTVhMTIuMTIxIDEyLjEyMSAwIDAgMC0yLjIyMi0uMjI0Yy02LjYgMC0xMS45NSA1LjE1MS0xMS45NSAxMS41MDQgMCA2LjM1NCA1LjM1IDExLjUwNCAxMS45NSAxMS41MDRoMjYuNTU2YzUuMTMzIDAgOS4yOTQtNC4wMDYgOS4yOTQtOC45NDguMDAxLTQuMzk1LTMuMjk0LTguMDQyLTcuNjM1LTguNzk2eiIgY2xhc3M9Im1zcG9ydGFsZngtc3ZnLWMxNSIgZmlsbD0iIzU5YjRkOSIgaWQ9InBhdGg4MjAiLz4mI3hhOyAgPHBhdGggb3BhY2l0eT0iLjQiIGQ9Ik0xNSAzM1YxNy4wNzhjMC0xLjE0NS45MzMtMi4wNzggMi4wNzgtMi4wNzhoMTcuODQ0YzEuMTQ1IDAgMi4wNzguOTMzIDIuMDc4IDIuMDc4VjMzSDE1eiIgY2xhc3M9Im1zcG9ydGFsZngtc3ZnLWMwMSIgZmlsbD0iI2ZmZiIgaWQ9InBhdGg4MjIiLz4mI3hhOyAgPHBhdGggZD0iTTM0LjkyMiAxNkgxNy4wNzhjLS41OTUgMC0xLjA3OC40ODMtMS4wNzggMS4wNzh2MzAuODQzYzAgLjU5Ni40ODMgMS4wNzkgMS4wNzggMS4wNzloMTcuODQzYy41OTYgMCAxLjA3OS0uNDgzIDEuMDc5LTEuMDc4VjE3LjA3OGMwLS41OTUtLjQ4My0xLjA3OC0xLjA3OC0xLjA3OHoiIGNsYXNzPSJtc3BvcnRhbGZ4LXN2Zy1jMDQiIGZpbGw9IiM3YTdhN2EiIGlkPSJwYXRoODI0Ii8+JiN4YTsgIDxwYXRoIG9wYWNpdHk9Ii40IiBkPSJNMzQuOTIyIDE2SDI4TDE2IDQzdjQuOTIyYzAgLjU5NS40ODMgMS4wNzggMS4wNzggMS4wNzhoMTcuODQzYy41OTYgMCAxLjA3OS0uNDgzIDEuMDc5LTEuMDc4VjE3LjA3OGMwLS41OTUtLjQ4My0xLjA3OC0xLjA3OC0xLjA3OHoiIGNsYXNzPSJtc3BvcnRhbGZ4LXN2Zy1jMDYiIGZpbGw9IiMxZTFlMWUiIGlkPSJwYXRoODI2Ii8+JiN4YTsgIDxwYXRoIGQ9Ik0xOCAxOWg0djVoLTR6bTYgMGg0djVoLTR6bTYgMGg0djVoLTR6bS0xMiA4aDR2NWgtNHptNiAwaDR2NWgtNHptNiAwaDR2NWgtNHptLTEyIDhoNHY1aC00em02IDBoNHY1aC00em0wIDhoNHY2aC00em02LThoNHY1aC00eiIgY2xhc3M9Im1zcG9ydGFsZngtc3ZnLWMwMSIgZmlsbD0iI2ZmZiIgaWQ9InBhdGg4MjgiLz4mI3hhOyAgPHBhdGggZD0iTTE4IDE5aDR2NWgtNHptNiAwaDR2NWgtNHptNiAwaDR2NWgtNHptLTEyIDhoNHY1aC00em02IDBoNHY1aC00em02IDBoNHY1aC00em0tMTIgOGg0djVoLTR6bTYgMGg0djVoLTR6bTAgOGg0djZoLTR6bTYtOGg0djVoLTR6IiBvcGFjaXR5PSIuMTUiIGNsYXNzPSJtc3BvcnRhbGZ4LXN2Zy1jMTUiIGZpbGw9IiM1OWI0ZDkiIGlkPSJwYXRoODMwIi8+JiN4YTs8L3N2Zz4=" parent="1" vertex="1">
                    <mxGeometry x="-1803" y="391" width="50" height="50" as="geometry"/>
                </mxCell>
                <mxCell id="ejB2oqNJLONClBfcNZHo-35" value="Azure AD&#10;tenant" style="shape=image;verticalLabelPosition=bottom;verticalAlign=top;imageAspect=0;aspect=fixed;image=data:image/svg+xml,PHN2ZyB4bWxuczpkYz0iaHR0cDovL3B1cmwub3JnL2RjL2VsZW1lbnRzLzEuMS8iIHhtbG5zOmNjPSJodHRwOi8vY3JlYXRpdmVjb21tb25zLm9yZy9ucyMiIHhtbG5zOnJkZj0iaHR0cDovL3d3dy53My5vcmcvMTk5OS8wMi8yMi1yZGYtc3ludGF4LW5zIyIgeG1sbnM6c3ZnPSJodHRwOi8vd3d3LnczLm9yZy8yMDAwL3N2ZyIgeG1sbnM9Imh0dHA6Ly93d3cudzMub3JnLzIwMDAvc3ZnIiB4bWxuczpzb2RpcG9kaT0iaHR0cDovL3NvZGlwb2RpLnNvdXJjZWZvcmdlLm5ldC9EVEQvc29kaXBvZGktMC5kdGQiIHhtbG5zOmlua3NjYXBlPSJodHRwOi8vd3d3Lmlua3NjYXBlLm9yZy9uYW1lc3BhY2VzL2lua3NjYXBlIiB2ZXJzaW9uPSIxLjEiIGlkPSJMYXllcl8xIiB4PSIwcHgiIHk9IjBweCIgd2lkdGg9IjUwcHgiIGhlaWdodD0iNTBweCIgdmlld0JveD0iMCAwIDUwIDUwIiBlbmFibGUtYmFja2dyb3VuZD0ibmV3IDAgMCA1MCA1MCIgeG1sOnNwYWNlPSJwcmVzZXJ2ZSIgc29kaXBvZGk6ZG9jbmFtZT0iQWN0aXZlIERpcmVjdG9yeS5zdmciIGlua3NjYXBlOnZlcnNpb249IjAuOTIuMyAoMjQwNTU0NiwgMjAxOC0wMy0xMSkiPjxtZXRhZGF0YSBpZD0ibWV0YWRhdGEyNSI+PHJkZjpSREY+PGNjOldvcmsgcmRmOmFib3V0PSIiPjxkYzpmb3JtYXQ+aW1hZ2Uvc3ZnK3htbDwvZGM6Zm9ybWF0PjxkYzp0eXBlIHJkZjpyZXNvdXJjZT0iaHR0cDovL3B1cmwub3JnL2RjL2RjbWl0eXBlL1N0aWxsSW1hZ2UiLz48ZGM6dGl0bGUvPjwvY2M6V29yaz48L3JkZjpSREY+PC9tZXRhZGF0YT48ZGVmcyBpZD0iZGVmczIzIi8+PHNvZGlwb2RpOm5hbWVkdmlldyBwYWdlY29sb3I9IiNmZmZmZmYiIGJvcmRlcmNvbG9yPSIjNjY2NjY2IiBib3JkZXJvcGFjaXR5PSIxIiBvYmplY3R0b2xlcmFuY2U9IjEwIiBncmlkdG9sZXJhbmNlPSIxMCIgZ3VpZGV0b2xlcmFuY2U9IjEwIiBpbmtzY2FwZTpwYWdlb3BhY2l0eT0iMCIgaW5rc2NhcGU6cGFnZXNoYWRvdz0iMiIgaW5rc2NhcGU6d2luZG93LXdpZHRoPSI2NDAiIGlua3NjYXBlOndpbmRvdy1oZWlnaHQ9IjQ4MCIgaWQ9Im5hbWVkdmlldzIxIiBzaG93Z3JpZD0iZmFsc2UiIGlua3NjYXBlOnpvb209IjQuNzIiIGlua3NjYXBlOmN4PSIyNSIgaW5rc2NhcGU6Y3k9IjI1IiBpbmtzY2FwZTp3aW5kb3cteD0iMCIgaW5rc2NhcGU6d2luZG93LXk9IjAiIGlua3NjYXBlOndpbmRvdy1tYXhpbWl6ZWQ9IjAiIGlua3NjYXBlOmN1cnJlbnQtbGF5ZXI9IkxheWVyXzEiLz4mI3hhOzxwYXRoIGZpbGw9IiM1OUI0RDkiIGQ9Ik0yNS4wMDEsNTAuMDAxYy0xLjIzMiwwLTIuMzkyLTAuNDgtMy4yNjEtMS4zNTJMMS4zNTEsMjguMjYxQzAuNDkyLDI3LjQwMiwwLDI2LjIxNSwwLDI1ICBjMC0xLjIxNCwwLjQ5Mi0yLjQwMiwxLjM1MS0zLjI2TDIxLjc0LDEuMzUyQzIyLjYxMSwwLjQ4LDIzLjc2OSwwLDI1LjAwMSwwYzEuMjMxLDAsMi4zOSwwLjQ4LDMuMjYxLDEuMzUyTDQ4LjY0OCwyMS43NCAgQzQ5LjUyMSwyMi42MDgsNTAsMjMuNzY3LDUwLDI1YzAsMS4yMzMtMC40NzksMi4zOTItMS4zNTMsMy4yNjNMMjguMjYyLDQ4LjY0OUMyNy4zOTIsNDkuNTIxLDI2LjIzMiw1MC4wMDEsMjUuMDAxLDUwLjAwMSIgaWQ9InBhdGgyIi8+JiN4YTs8cGF0aCBmaWxsPSIjRkZGRkZGIiBkPSJNMzguNjE0LDIxLjA5M2MtMi4xNiwwLTMuOTEsMS43NS0zLjkxLDMuOTA5YzAsMC43OTIsMC4yMzksMS41MjcsMC42NDUsMi4xNDNsLTcuNzQ0LDcuNzQ0ICBjLTAuMjA2LTAuMTQ0LTAuNDI3LTAuMjY0LTAuNjU2LTAuMzczVjE0Ljc1OWMxLjE2Ny0wLjY3NiwxLjk2MS0xLjkyNCwxLjk2MS0zLjM3QzI4LjkxLDkuMjMsMjcuMTYsNy40OCwyNSw3LjQ4ICBjLTIuMTU4LDAtMy45MDgsMS43NS0zLjkwOCwzLjkwOWMwLDEuNDQ2LDAuNzk0LDIuNjk0LDEuOTYsMy4zN3YxOS43NTZjLTAuMjE5LDAuMTA0LTAuNDM0LDAuMjE2LTAuNjMyLDAuMzUzbC03Ljc1My03Ljc1MyAgYzAuMzk0LTAuNjEsMC42MjgtMS4zMzMsMC42MjgtMi4xMTNjMC0yLjE1OS0xLjc1LTMuOTA5LTMuOTA4LTMuOTA5Yy0yLjE2LDAtMy45MSwxLjc1LTMuOTEsMy45MDlzMS43NSwzLjkwOSwzLjkxLDMuOTA5ICBjMC40NDgsMCwwLjg3Mi0wLjA5MSwxLjI3NC0wLjIzbDguMTUsOC4xNWMtMC4yMzQsMC41NDgtMC4zNjQsMS4xNS0wLjM2NCwxLjc4M2MwLDIuNTEzLDIuMDM4LDQuNTUxLDQuNTUxLDQuNTUxICBjMi41MTQsMCw0LjU1MS0yLjAzOCw0LjU1MS00LjU1MWMwLTAuNjIxLTAuMTI2LTEuMjEyLTAuMzUxLTEuNzUxbDguMTczLTguMTcyYzAuMzkyLDAuMTMyLDAuODA0LDAuMjIsMS4yNDEsMC4yMiAgYzIuMTU4LDAsMy45MDgtMS43NSwzLjkwOC0zLjkwOVM0MC43NzEsMjEuMDkzLDM4LjYxNCwyMS4wOTN6IiBpZD0icGF0aDQiLz4mI3hhOzxyZWN0IHg9IjMxLjAwNiIgeT0iOC4yMjYiIHRyYW5zZm9ybT0ibWF0cml4KC0wLjcwNyAwLjcwNzIgLTAuNzA3MiAtMC43MDcgNjguMjA5OSA4Ljg3MTgpIiBvcGFjaXR5PSIwLjUiIGZpbGw9IiNGRkZGRkYiIHdpZHRoPSIyLjUyMyIgaGVpZ2h0PSIyMC42NzYiIGlkPSJyZWN0NiIvPiYjeGE7PHJlY3QgeD0iMTYuNDg3IiB5PSI4LjI0MiIgdHJhbnNmb3JtPSJtYXRyaXgoMC43MDcxIDAuNzA3MSAtMC43MDcxIDAuNzA3MSAxOC4zMzU1IC03LjEwODgpIiBvcGFjaXR5PSIwLjUiIGZpbGw9IiNGRkZGRkYiIHdpZHRoPSIyLjUyNCIgaGVpZ2h0PSIyMC42NzciIGlkPSJyZWN0OCIvPiYjeGE7PHBhdGggZmlsbD0iI0I4RDQzMiIgZD0iTTI3LjY2NSwzOC42MTRjMCwxLjQ5Ni0xLjIxNCwyLjcwOS0yLjcxLDIuNzA5Yy0xLjQ5NywwLTIuNzA5LTEuMjEzLTIuNzA5LTIuNzA5ICBjMC0xLjQ5NiwxLjIxMi0yLjcwOSwyLjcwOS0yLjcwOUMyNi40NSwzNS45MDUsMjcuNjY1LDM3LjExOCwyNy42NjUsMzguNjE0IiBpZD0icGF0aDEwIi8+JiN4YTs8cGF0aCBmaWxsPSIjQjhENDMyIiBkPSJNMjcuMTc0LDExLjM4OWMwLDEuMjAxLTAuOTczLDIuMTc0LTIuMTc0LDIuMTc0Yy0xLjIwMSwwLTIuMTc0LTAuOTczLTIuMTc0LTIuMTc0ICBjMC0xLjIwMSwwLjk3My0yLjE3NCwyLjE3NC0yLjE3NEMyNi4yMDEsOS4yMTUsMjcuMTc0LDEwLjE4OCwyNy4xNzQsMTEuMzg5IiBpZD0icGF0aDEyIi8+JiN4YTs8cGF0aCBmaWxsPSIjQjhENDMyIiBkPSJNMTMuNTYzLDI1LjAwMWMwLDEuMjAxLTAuOTc1LDIuMTc0LTIuMTc0LDIuMTc0Yy0xLjIwMSwwLTIuMTc0LTAuOTczLTIuMTc0LTIuMTc0ICBjMC0xLjIwMSwwLjk3My0yLjE3NCwyLjE3NC0yLjE3NEMxMi41ODgsMjIuODI3LDEzLjU2MywyMy44LDEzLjU2MywyNS4wMDEiIGlkPSJwYXRoMTQiLz4mI3hhOzxwYXRoIGZpbGw9IiNCOEQ0MzIiIGQ9Ik00MC43ODgsMjUuMDAxYzAsMS4yMDEtMC45NzUsMi4xNzQtMi4xNzUsMi4xNzRjLTEuMiwwLTIuMTc0LTAuOTczLTIuMTc0LTIuMTc0ICBjMC0xLjIwMSwwLjk3NC0yLjE3NCwyLjE3NC0yLjE3NEMzOS44MTMsMjIuODI3LDQwLjc4OCwyMy44LDQwLjc4OCwyNS4wMDEiIGlkPSJwYXRoMTYiLz4mI3hhOzxwYXRoIG9wYWNpdHk9IjAuMSIgZmlsbD0iI0ZGRkZGRiIgZD0iTTI4LjI2MiwxLjM1MkMyNy4zOTEsMC40OCwyNi4yMzMsMCwyNS4wMDEsMGMtMS4yMzEsMC0yLjM4OSwwLjQ4LTMuMjYsMS4zNTJMMS4zNTIsMjEuNzQgIEMwLjQ5MiwyMi41OTgsMCwyMy43ODYsMCwyNWMwLDEuMjE1LDAuNDkyLDIuNDAzLDEuMzUyLDMuMjYxbDExLjU0MywxMS41NDRMMzQuNjEsNy42OTlMMjguMjYyLDEuMzUyeiIgaWQ9InBhdGgxOCIvPiYjeGE7PC9zdmc+" parent="1" vertex="1">
                    <mxGeometry x="-1270" y="610" width="50" height="50" as="geometry"/>
                </mxCell>
                <mxCell id="25" style="edgeStyle=orthogonalEdgeStyle;rounded=0;orthogonalLoop=1;jettySize=auto;html=1;entryX=0;entryY=0.75;entryDx=0;entryDy=0;" parent="1" target="ejB2oqNJLONClBfcNZHo-23" edge="1">
                    <mxGeometry relative="1" as="geometry">
                        <mxPoint x="-1210" y="765" as="sourcePoint"/>
                    </mxGeometry>
                </mxCell>
                <mxCell id="35" style="edgeStyle=orthogonalEdgeStyle;rounded=0;orthogonalLoop=1;jettySize=auto;html=1;entryX=1;entryY=0.75;entryDx=0;entryDy=0;strokeColor=none;" parent="1" target="ejB2oqNJLONClBfcNZHo-28" edge="1">
                    <mxGeometry relative="1" as="geometry">
                        <mxPoint x="-1730.9031372070312" y="738.5894317626953" as="targetPoint"/>
                        <mxPoint x="-1290" y="765" as="sourcePoint"/>
                    </mxGeometry>
                </mxCell>
                <mxCell id="16" value="AKSAPI's" style="aspect=fixed;html=1;points=[];align=center;image;fontSize=12;image=img/lib/azure2/compute/Container_Services_Deprecated.svg;" parent="1" vertex="1">
                    <mxGeometry x="-270" y="440" width="68" height="60" as="geometry"/>
                </mxCell>
                <mxCell id="19" style="edgeStyle=orthogonalEdgeStyle;rounded=0;orthogonalLoop=1;jettySize=auto;html=1;entryX=0;entryY=0.5;entryDx=0;entryDy=0;" parent="1" source="18" target="ejB2oqNJLONClBfcNZHo-23" edge="1">
                    <mxGeometry relative="1" as="geometry"/>
                </mxCell>
                <mxCell id="18" value="Application&#10;Gateway" style="shape=image;verticalLabelPosition=bottom;verticalAlign=top;imageAspect=0;aspect=fixed;image=data:image/svg+xml,PHN2ZyB4bWxuczpkYz0iaHR0cDovL3B1cmwub3JnL2RjL2VsZW1lbnRzLzEuMS8iIHhtbG5zOmNjPSJodHRwOi8vY3JlYXRpdmVjb21tb25zLm9yZy9ucyMiIHhtbG5zOnJkZj0iaHR0cDovL3d3dy53My5vcmcvMTk5OS8wMi8yMi1yZGYtc3ludGF4LW5zIyIgeG1sbnM6c3ZnPSJodHRwOi8vd3d3LnczLm9yZy8yMDAwL3N2ZyIgeG1sbnM9Imh0dHA6Ly93d3cudzMub3JnLzIwMDAvc3ZnIiB4bWxuczpzb2RpcG9kaT0iaHR0cDovL3NvZGlwb2RpLnNvdXJjZWZvcmdlLm5ldC9EVEQvc29kaXBvZGktMC5kdGQiIHhtbG5zOmlua3NjYXBlPSJodHRwOi8vd3d3Lmlua3NjYXBlLm9yZy9uYW1lc3BhY2VzL2lua3NjYXBlIiB2ZXJzaW9uPSIxLjEiIGlkPSJMYXllcl8xIiB4PSIwcHgiIHk9IjBweCIgd2lkdGg9IjUwcHgiIGhlaWdodD0iNTBweCIgdmlld0JveD0iMCAwIDUwIDUwIiBlbmFibGUtYmFja2dyb3VuZD0ibmV3IDAgMCA1MCA1MCIgeG1sOnNwYWNlPSJwcmVzZXJ2ZSIgc29kaXBvZGk6ZG9jbmFtZT0iQXBwbGljYXRpb24gR2F0ZXdheS5zdmciIGlua3NjYXBlOnZlcnNpb249IjAuOTIuMyAoMjQwNTU0NiwgMjAxOC0wMy0xMSkiPjxtZXRhZGF0YSBpZD0ibWV0YWRhdGEzOTEyIj48cmRmOlJERj48Y2M6V29yayByZGY6YWJvdXQ9IiI+PGRjOmZvcm1hdD5pbWFnZS9zdmcreG1sPC9kYzpmb3JtYXQ+PGRjOnR5cGUgcmRmOnJlc291cmNlPSJodHRwOi8vcHVybC5vcmcvZGMvZGNtaXR5cGUvU3RpbGxJbWFnZSIvPjxkYzp0aXRsZS8+PC9jYzpXb3JrPjwvcmRmOlJERj48L21ldGFkYXRhPjxkZWZzIGlkPSJkZWZzMzkxMCIvPjxzb2RpcG9kaTpuYW1lZHZpZXcgcGFnZWNvbG9yPSIjZmZmZmZmIiBib3JkZXJjb2xvcj0iIzY2NjY2NiIgYm9yZGVyb3BhY2l0eT0iMSIgb2JqZWN0dG9sZXJhbmNlPSIxMCIgZ3JpZHRvbGVyYW5jZT0iMTAiIGd1aWRldG9sZXJhbmNlPSIxMCIgaW5rc2NhcGU6cGFnZW9wYWNpdHk9IjAiIGlua3NjYXBlOnBhZ2VzaGFkb3c9IjIiIGlua3NjYXBlOndpbmRvdy13aWR0aD0iNjQwIiBpbmtzY2FwZTp3aW5kb3ctaGVpZ2h0PSI0ODAiIGlkPSJuYW1lZHZpZXczOTA4IiBzaG93Z3JpZD0iZmFsc2UiIGlua3NjYXBlOnpvb209IjYuMjYiIGlua3NjYXBlOmN4PSIyNSIgaW5rc2NhcGU6Y3k9IjI1IiBpbmtzY2FwZTp3aW5kb3cteD0iMCIgaW5rc2NhcGU6d2luZG93LXk9IjAiIGlua3NjYXBlOndpbmRvdy1tYXhpbWl6ZWQ9IjEiIGlua3NjYXBlOmN1cnJlbnQtbGF5ZXI9IkxheWVyXzEiLz4mI3hhOzxwYXRoIGZpbGw9IiM3RkJBMDAiIGQ9Ik0yNSw1MGMtMS4yLDAtMi40LTAuNS0zLjMtMS40TDEuNCwyOC4zQzAuNSwyNy40LDAsMjYuMiwwLDI1czAuNS0yLjQsMS40LTMuM0wyMS43LDEuNCAgQzIyLjYsMC41LDIzLjgsMCwyNSwwczIuNCwwLjUsMy4zLDEuNGwyMC40LDIwLjRjMC45LDAuOSwxLjQsMiwxLjQsMy4zYzAsMS4yLTAuNSwyLjQtMS40LDMuM0wyOC4zLDQ4LjZDMjcuNCw0OS41LDI2LjIsNTAsMjUsNTAiIGlkPSJwYXRoMzg5MSIvPiYjeGE7PHBhdGggZmlsbD0iI0ZGRkZGRiIgZD0iTTI5LjczOCwxOC41ODRjLTEuMzk4LDEuMDY5LTMuMDQ0LDEuNTg5LTQuNjgsMS41ODljLTIuMzIsMC00LjYxNC0xLjA0Mi02LjEzMS0zLjAyNSAgYy0yLjU5LTMuMzgyLTEuOTUxLTguMjE5LDEuNDM3LTEwLjgxMWMxLjM5Ny0xLjA3NSwzLjA0Ni0xLjU4OCw0LjY3OS0xLjU4OGMyLjMyLDAsNC42MTUsMS4wNDIsNi4xMzEsMy4wMjYgIEMzMy43NjUsMTEuMTU4LDMzLjExOSwxNS45OTYsMjkuNzM4LDE4LjU4NCIgaWQ9InBhdGgzODkzIi8+JiN4YTs8cGF0aCBvcGFjaXR5PSIwLjE1IiBmaWxsPSIjRkZGRkZGIiBlbmFibGUtYmFja2dyb3VuZD0ibmV3ICAgICIgZD0iTTI4LjMsMS40QzI3LjQsMC41LDI2LjIsMCwyNSwwcy0yLjQsMC41LTMuMywxLjRMMS40LDIxLjcgIEMwLjUsMjIuNiwwLDIzLjgsMCwyNXMwLjUsMi40LDEuNCwzLjNsMTEuNSwxMS41TDM0LjYsNy43TDI4LjMsMS40eiIgaWQ9InBhdGgzODk1Ii8+JiN4YTs8cG9seWdvbiBmaWxsPSIjRkZGRkZGIiBwb2ludHM9IjI1LDQ1LjYgMzEuNiwzOSAyNi45LDM5IDI2LjksMTkuMTQ5IDIzLDE5LjE0OSAyMywzOSAxOC40LDM5ICIgaWQ9InBvbHlnb24zODk3Ii8+JiN4YTs8cG9seWdvbiBmaWxsPSIjRkZGRkZGIiBwb2ludHM9IjM5LjMzLDMzLjQ4IDM5LjMzLDI0LjE0NiAzNi4wNzcsMjcuMzk5IDI3LjYzMywxOC45NTUgMjQuODA1LDIxLjc4MyAzMy4yNDksMzAuMjI3IDI5Ljk5NiwzMy40OCAgICIgaWQ9InBvbHlnb24zODk5Ii8+JiN4YTs8cG9seWdvbiBmaWxsPSIjRkZGRkZGIiBwb2ludHM9IjEwLjY4NSwzMy41MTUgMjAuMDE4LDMzLjUxNSAxNi43NjYsMzAuMjYzIDI1LjQ0NywyMS41ODIgMjIuNjE4LDE4Ljc1MyAxMy45MzcsMjcuNDM0ICAgMTAuNjg1LDI0LjE4MiAiIGlkPSJwb2x5Z29uMzkwMSIvPiYjeGE7PHBhdGggZmlsbD0iIzU5QjREOSIgZD0iTTI5LjExNSwxNy43NzFjLTEuMjEyLDAuOTI3LTIuNjQsMS4zNzgtNC4wNTgsMS4zNzhjLTIuMDEyLDAtNC4wMDItMC45MDMtNS4zMTYtMi42MjMgIGMtMi4yNDYtMi45MzMtMS42OTItNy4xMjcsMS4yNDYtOS4zNzVjMS4yMTItMC45MzIsMi42NDEtMS4zNzcsNC4wNTctMS4zNzdjMi4wMTIsMCw0LjAwMiwwLjkwMyw1LjMxNiwyLjYyNCAgQzMyLjYwOCwxMS4zMzEsMzIuMDQ4LDE1LjUyNiwyOS4xMTUsMTcuNzcxIiBpZD0icGF0aDM5MDMiLz4mI3hhOzxwYXRoIGZpbGw9IiNGRkZGRkYiIGQ9Ik0yNy44ODYsMTMuNjM1YzAuNDg2LDAuNjM0LDEuMzg4LDAuNzQ4LDIuMDE4LDAuMjY5YzAuMDMzLTAuMDI1LDAuMDU4LTAuMDU2LDAuMDg4LTAuMDgzICBjMC42NDUsMC40NTQsMS4wOTIsMC43NTQsMS4zNDQsMC45MjVjMC4wNzUtMC4xOTMsMC4xMjYtMC4zNzksMC4xNzktMC41NzNjLTAuMjY2LTAuMTk4LTAuNjI3LTAuNDc2LTEuMTQ4LTAuODk4ICBjMC4xNzEtMC40NDksMC4xMTctMC45NzQtMC4xOTUtMS4zODRjLTAuNDQ3LTAuNTc4LTEuMjM4LTAuNzI1LTEuODU2LTAuMzY4Yy0wLjY4MS0wLjYxMS0xLjQzLTEuMzEyLTIuMjE5LTIuMDk2ICBjMi40NTItMS4zMTksNC4xOTQtMS4xMjYsNC4xOTQtMS4xMjZjLTAuMjkxLTAuMzcxLTAuNjE3LTAuNjk2LTAuOTY1LTAuOTg5Yy0xLjAzNC0wLjE2LTIuNjQtMC4xNDItNC40NzYsMC44MzRsLTAuMDAxLTAuMDAxaDAgIGMtMC42MTItMC42NC0xLjIzNC0xLjMyNy0xLjg2OC0yLjA2M2MtMC4zMDMsMC4wOTctMC42LDAuMjE3LTAuODg2LDAuMzZjMC40NjgsMC43NjYsMS4wOTgsMS41MzgsMS44MDcsMi4yOTJsMCwwICBjMC4wMDEsMC4wMDIsMC4wMDMsMC4wMDMsMC4wMDUsMC4wMDVjLTAuNTkyLDAuNDE0LTEuMjUsMC45NjctMS44NTgsMS42MDljLTAuMDc4LDAuMDgzLTAuMTUyLDAuMTY2LTAuMjI1LDAuMjQ5ICBjLTAuMzYzLTAuMDc2LTAuNzQ1LTAuMDU0LTEuMTAyLDAuMDc1Yy0wLjYwNi0xLjMwNy0wLjU1Ny0yLjM1Ny0wLjQ2MS0yLjg5OGMtMC4yNjMsMC4yNzYtMC41MDksMC41NjUtMC43MiwwLjg3NCAgYy0wLjE1OCwwLjY0Ni0wLjIwMywxLjU3OCwwLjI2NCwyLjcwMWMtMC41NCwwLjcwNy0wLjU2NiwxLjcwOS0wLjAwMSwyLjQ0OWMwLjA0NywwLjA2MSwwLjA5NywwLjExOCwwLjE1LDAuMTczICBjLTAuMjQ2LDAuODM5LTAuMzU3LDEuNjQ5LTAuMzkxLDIuMzQ0YzAuMDYzLDAuMDg2LDAuMDYzLDAuMTU2LDAuMTI2LDAuMjRjMC4zMjEsMC40MTEsMC43MjQsMC43NTgsMS4xMTMsMS4wNzIgIGMtMC4wNDgtMC43MzYsMC4wMDQtMS44MjEsMC40NTktMy4wNDNjMC4zMTQsMC4wMjQsMC42MzMtMC4wMjYsMC45MzItMC4xNTFjMC4xNzEsMC4xNTEsMC4zNSwwLjMwMywwLjU0MiwwLjQ1OCAgYzAuNjU2LDAuNTIsMS4zMTEsMC45MjQsMS45NDksMS4yNDJjLTAuMDMzLDAuMzI1LDAuMDQ4LDAuNjYyLDAuMjU5LDAuOTQxYzAuNDUxLDAuNTgyLDEuMjg2LDAuNjkxLDEuODY4LDAuMjQ2ICBjMC4xMjEtMC4wOTMsMC4yMTctMC4yMDUsMC4yOTYtMC4zMjVjMS4wNDEsMC4yMzIsMS45NSwwLjI3MywyLjYyNCwwLjI3M2MwLjEwMywwLDAuNTgyLTAuNjUyLDAuODU3LTEuMDU2ICBjLTAuNDEsMC4wODYtMS42MjgsMC4yNTMtMy4yOTEtMC4yMjVjLTAuMDQtMC4xODctMC4xMTctMC4zNjgtMC4yNC0wLjUzYy0wLjQyMi0wLjU1NC0xLjE5NS0wLjY3NC0xLjc3MS0wLjMwMyAgYy0wLjU3OC0wLjMxNC0xLjE4NC0wLjcwNy0xLjgwOC0xLjIwMWMtMC4xMjYtMC4xLTAuMjQ3LTAuMTk5LTAuMzY0LTAuMjk5YzAuMzgyLTAuNjAxLDAuNDIyLTEuMzcyLDAuMDg1LTIuMDIgIGMwLjA3Ny0wLjA3NywwLjE1Mi0wLjE1MywwLjIzMy0wLjIyOWMwLjYxOC0wLjU3OCwxLjItMS4wNCwxLjc0NC0xLjQxMWMtMC4wMjItMC4wMi0wLjA0Mi0wLjA0Mi0wLjA2My0wLjA2MiAgYzAuMDIyLDAuMDIsMC4wNDIsMC4wNDEsMC4wNjQsMC4wNjFjMCwwLDAsMC0wLjAwMSwwYzAuODM1LDAuNzcyLDEuNzIsMS41MDQsMi41NTksMi4xNTggIEMyNy41MTQsMTIuNjIxLDI3LjU0OSwxMy4xOTQsMjcuODg2LDEzLjYzNXoiIGlkPSJwYXRoMzkwNSIvPiYjeGE7PC9zdmc+" parent="1" vertex="1">
                    <mxGeometry x="-1080" y="470" width="50" height="50" as="geometry"/>
                </mxCell>
                <mxCell id="20" value="" style="aspect=fixed;html=1;points=[];align=center;image;fontSize=12;image=img/lib/azure2/networking/DNS_Zones.svg;" parent="1" vertex="1">
                    <mxGeometry x="-856" y="720" width="40" height="40" as="geometry"/>
                </mxCell>
                <mxCell id="21" value="" style="aspect=fixed;html=1;points=[];align=center;image;fontSize=12;image=img/lib/azure2/networking/Virtual_Networks.svg;" parent="1" vertex="1">
                    <mxGeometry x="-920" y="725" width="50.25" height="30" as="geometry"/>
                </mxCell>
                <mxCell id="22" value="" style="aspect=fixed;html=1;points=[];align=center;image;fontSize=12;image=img/lib/azure2/networking/Network_Security_Groups.svg;" parent="1" vertex="1">
                    <mxGeometry x="-972.15" y="720" width="31.29" height="38" as="geometry"/>
                </mxCell>
                <mxCell id="32" value="PAAS services&lt;br&gt;&lt;br&gt;&lt;br&gt;&lt;br&gt;&lt;br&gt;&lt;br&gt;" style="rounded=1;whiteSpace=wrap;html=1;" parent="1" vertex="1">
                    <mxGeometry x="-1422" y="904" width="517" height="148" as="geometry"/>
                </mxCell>
                <mxCell id="33" value="Keyvault" style="aspect=fixed;html=1;points=[];align=center;image;fontSize=12;image=img/lib/azure2/security/Key_Vaults.svg;" parent="1" vertex="1">
                    <mxGeometry x="-1364" y="967" width="48" height="48" as="geometry"/>
                </mxCell>
                <mxCell id="34" value="Application Insights&lt;br&gt;" style="aspect=fixed;html=1;points=[];align=center;image;fontSize=12;image=img/lib/azure2/monitor/SAP_Azure_Monitor.svg;" parent="1" vertex="1">
                    <mxGeometry x="-1274" y="967" width="55" height="44" as="geometry"/>
                </mxCell>
                <mxCell id="39" value="Event Hub" style="aspect=fixed;html=1;points=[];align=center;image;fontSize=12;image=img/lib/azure2/analytics/Event_Hubs.svg;" parent="1" vertex="1">
                    <mxGeometry x="-1162" y="962" width="55.83" height="50" as="geometry"/>
                </mxCell>
                <mxCell id="43" value="Text" style="text;html=1;resizable=0;autosize=1;align=center;verticalAlign=middle;points=[];fillColor=none;strokeColor=none;rounded=0;" parent="1" vertex="1">
                    <mxGeometry x="-1154" y="739" width="40" height="20" as="geometry"/>
                </mxCell>
                <mxCell id="45" value="PING On prem&#10;CIAM" style="shape=image;verticalLabelPosition=bottom;verticalAlign=top;imageAspect=0;aspect=fixed;image=data:image/svg+xml,PHN2ZyB4bWxuczpkYz0iaHR0cDovL3B1cmwub3JnL2RjL2VsZW1lbnRzLzEuMS8iIHhtbG5zOmNjPSJodHRwOi8vY3JlYXRpdmVjb21tb25zLm9yZy9ucyMiIHhtbG5zOnJkZj0iaHR0cDovL3d3dy53My5vcmcvMTk5OS8wMi8yMi1yZGYtc3ludGF4LW5zIyIgeG1sbnM6c3ZnPSJodHRwOi8vd3d3LnczLm9yZy8yMDAwL3N2ZyIgeG1sbnM9Imh0dHA6Ly93d3cudzMub3JnLzIwMDAvc3ZnIiB4bWxuczpzb2RpcG9kaT0iaHR0cDovL3NvZGlwb2RpLnNvdXJjZWZvcmdlLm5ldC9EVEQvc29kaXBvZGktMC5kdGQiIHhtbG5zOmlua3NjYXBlPSJodHRwOi8vd3d3Lmlua3NjYXBlLm9yZy9uYW1lc3BhY2VzL2lua3NjYXBlIiB2ZXJzaW9uPSIxLjEiIGlkPSJMYXllcl8xIiB4PSIwcHgiIHk9IjBweCIgd2lkdGg9IjUwcHgiIGhlaWdodD0iNTBweCIgdmlld0JveD0iMCAwIDUwIDUwIiBlbmFibGUtYmFja2dyb3VuZD0ibmV3IDAgMCA1MCA1MCIgeG1sOnNwYWNlPSJwcmVzZXJ2ZSIgc29kaXBvZGk6ZG9jbmFtZT0iQWN0aXZlIERpcmVjdG9yeS5zdmciIGlua3NjYXBlOnZlcnNpb249IjAuOTIuMyAoMjQwNTU0NiwgMjAxOC0wMy0xMSkiPjxtZXRhZGF0YSBpZD0ibWV0YWRhdGEyNSI+PHJkZjpSREY+PGNjOldvcmsgcmRmOmFib3V0PSIiPjxkYzpmb3JtYXQ+aW1hZ2Uvc3ZnK3htbDwvZGM6Zm9ybWF0PjxkYzp0eXBlIHJkZjpyZXNvdXJjZT0iaHR0cDovL3B1cmwub3JnL2RjL2RjbWl0eXBlL1N0aWxsSW1hZ2UiLz48ZGM6dGl0bGUvPjwvY2M6V29yaz48L3JkZjpSREY+PC9tZXRhZGF0YT48ZGVmcyBpZD0iZGVmczIzIi8+PHNvZGlwb2RpOm5hbWVkdmlldyBwYWdlY29sb3I9IiNmZmZmZmYiIGJvcmRlcmNvbG9yPSIjNjY2NjY2IiBib3JkZXJvcGFjaXR5PSIxIiBvYmplY3R0b2xlcmFuY2U9IjEwIiBncmlkdG9sZXJhbmNlPSIxMCIgZ3VpZGV0b2xlcmFuY2U9IjEwIiBpbmtzY2FwZTpwYWdlb3BhY2l0eT0iMCIgaW5rc2NhcGU6cGFnZXNoYWRvdz0iMiIgaW5rc2NhcGU6d2luZG93LXdpZHRoPSI2NDAiIGlua3NjYXBlOndpbmRvdy1oZWlnaHQ9IjQ4MCIgaWQ9Im5hbWVkdmlldzIxIiBzaG93Z3JpZD0iZmFsc2UiIGlua3NjYXBlOnpvb209IjQuNzIiIGlua3NjYXBlOmN4PSIyNSIgaW5rc2NhcGU6Y3k9IjI1IiBpbmtzY2FwZTp3aW5kb3cteD0iMCIgaW5rc2NhcGU6d2luZG93LXk9IjAiIGlua3NjYXBlOndpbmRvdy1tYXhpbWl6ZWQ9IjAiIGlua3NjYXBlOmN1cnJlbnQtbGF5ZXI9IkxheWVyXzEiLz4mI3hhOzxwYXRoIGZpbGw9IiM1OUI0RDkiIGQ9Ik0yNS4wMDEsNTAuMDAxYy0xLjIzMiwwLTIuMzkyLTAuNDgtMy4yNjEtMS4zNTJMMS4zNTEsMjguMjYxQzAuNDkyLDI3LjQwMiwwLDI2LjIxNSwwLDI1ICBjMC0xLjIxNCwwLjQ5Mi0yLjQwMiwxLjM1MS0zLjI2TDIxLjc0LDEuMzUyQzIyLjYxMSwwLjQ4LDIzLjc2OSwwLDI1LjAwMSwwYzEuMjMxLDAsMi4zOSwwLjQ4LDMuMjYxLDEuMzUyTDQ4LjY0OCwyMS43NCAgQzQ5LjUyMSwyMi42MDgsNTAsMjMuNzY3LDUwLDI1YzAsMS4yMzMtMC40NzksMi4zOTItMS4zNTMsMy4yNjNMMjguMjYyLDQ4LjY0OUMyNy4zOTIsNDkuNTIxLDI2LjIzMiw1MC4wMDEsMjUuMDAxLDUwLjAwMSIgaWQ9InBhdGgyIi8+JiN4YTs8cGF0aCBmaWxsPSIjRkZGRkZGIiBkPSJNMzguNjE0LDIxLjA5M2MtMi4xNiwwLTMuOTEsMS43NS0zLjkxLDMuOTA5YzAsMC43OTIsMC4yMzksMS41MjcsMC42NDUsMi4xNDNsLTcuNzQ0LDcuNzQ0ICBjLTAuMjA2LTAuMTQ0LTAuNDI3LTAuMjY0LTAuNjU2LTAuMzczVjE0Ljc1OWMxLjE2Ny0wLjY3NiwxLjk2MS0xLjkyNCwxLjk2MS0zLjM3QzI4LjkxLDkuMjMsMjcuMTYsNy40OCwyNSw3LjQ4ICBjLTIuMTU4LDAtMy45MDgsMS43NS0zLjkwOCwzLjkwOWMwLDEuNDQ2LDAuNzk0LDIuNjk0LDEuOTYsMy4zN3YxOS43NTZjLTAuMjE5LDAuMTA0LTAuNDM0LDAuMjE2LTAuNjMyLDAuMzUzbC03Ljc1My03Ljc1MyAgYzAuMzk0LTAuNjEsMC42MjgtMS4zMzMsMC42MjgtMi4xMTNjMC0yLjE1OS0xLjc1LTMuOTA5LTMuOTA4LTMuOTA5Yy0yLjE2LDAtMy45MSwxLjc1LTMuOTEsMy45MDlzMS43NSwzLjkwOSwzLjkxLDMuOTA5ICBjMC40NDgsMCwwLjg3Mi0wLjA5MSwxLjI3NC0wLjIzbDguMTUsOC4xNWMtMC4yMzQsMC41NDgtMC4zNjQsMS4xNS0wLjM2NCwxLjc4M2MwLDIuNTEzLDIuMDM4LDQuNTUxLDQuNTUxLDQuNTUxICBjMi41MTQsMCw0LjU1MS0yLjAzOCw0LjU1MS00LjU1MWMwLTAuNjIxLTAuMTI2LTEuMjEyLTAuMzUxLTEuNzUxbDguMTczLTguMTcyYzAuMzkyLDAuMTMyLDAuODA0LDAuMjIsMS4yNDEsMC4yMiAgYzIuMTU4LDAsMy45MDgtMS43NSwzLjkwOC0zLjkwOVM0MC43NzEsMjEuMDkzLDM4LjYxNCwyMS4wOTN6IiBpZD0icGF0aDQiLz4mI3hhOzxyZWN0IHg9IjMxLjAwNiIgeT0iOC4yMjYiIHRyYW5zZm9ybT0ibWF0cml4KC0wLjcwNyAwLjcwNzIgLTAuNzA3MiAtMC43MDcgNjguMjA5OSA4Ljg3MTgpIiBvcGFjaXR5PSIwLjUiIGZpbGw9IiNGRkZGRkYiIHdpZHRoPSIyLjUyMyIgaGVpZ2h0PSIyMC42NzYiIGlkPSJyZWN0NiIvPiYjeGE7PHJlY3QgeD0iMTYuNDg3IiB5PSI4LjI0MiIgdHJhbnNmb3JtPSJtYXRyaXgoMC43MDcxIDAuNzA3MSAtMC43MDcxIDAuNzA3MSAxOC4zMzU1IC03LjEwODgpIiBvcGFjaXR5PSIwLjUiIGZpbGw9IiNGRkZGRkYiIHdpZHRoPSIyLjUyNCIgaGVpZ2h0PSIyMC42NzciIGlkPSJyZWN0OCIvPiYjeGE7PHBhdGggZmlsbD0iI0I4RDQzMiIgZD0iTTI3LjY2NSwzOC42MTRjMCwxLjQ5Ni0xLjIxNCwyLjcwOS0yLjcxLDIuNzA5Yy0xLjQ5NywwLTIuNzA5LTEuMjEzLTIuNzA5LTIuNzA5ICBjMC0xLjQ5NiwxLjIxMi0yLjcwOSwyLjcwOS0yLjcwOUMyNi40NSwzNS45MDUsMjcuNjY1LDM3LjExOCwyNy42NjUsMzguNjE0IiBpZD0icGF0aDEwIi8+JiN4YTs8cGF0aCBmaWxsPSIjQjhENDMyIiBkPSJNMjcuMTc0LDExLjM4OWMwLDEuMjAxLTAuOTczLDIuMTc0LTIuMTc0LDIuMTc0Yy0xLjIwMSwwLTIuMTc0LTAuOTczLTIuMTc0LTIuMTc0ICBjMC0xLjIwMSwwLjk3My0yLjE3NCwyLjE3NC0yLjE3NEMyNi4yMDEsOS4yMTUsMjcuMTc0LDEwLjE4OCwyNy4xNzQsMTEuMzg5IiBpZD0icGF0aDEyIi8+JiN4YTs8cGF0aCBmaWxsPSIjQjhENDMyIiBkPSJNMTMuNTYzLDI1LjAwMWMwLDEuMjAxLTAuOTc1LDIuMTc0LTIuMTc0LDIuMTc0Yy0xLjIwMSwwLTIuMTc0LTAuOTczLTIuMTc0LTIuMTc0ICBjMC0xLjIwMSwwLjk3My0yLjE3NCwyLjE3NC0yLjE3NEMxMi41ODgsMjIuODI3LDEzLjU2MywyMy44LDEzLjU2MywyNS4wMDEiIGlkPSJwYXRoMTQiLz4mI3hhOzxwYXRoIGZpbGw9IiNCOEQ0MzIiIGQ9Ik00MC43ODgsMjUuMDAxYzAsMS4yMDEtMC45NzUsMi4xNzQtMi4xNzUsMi4xNzRjLTEuMiwwLTIuMTc0LTAuOTczLTIuMTc0LTIuMTc0ICBjMC0xLjIwMSwwLjk3NC0yLjE3NCwyLjE3NC0yLjE3NEMzOS44MTMsMjIuODI3LDQwLjc4OCwyMy44LDQwLjc4OCwyNS4wMDEiIGlkPSJwYXRoMTYiLz4mI3hhOzxwYXRoIG9wYWNpdHk9IjAuMSIgZmlsbD0iI0ZGRkZGRiIgZD0iTTI4LjI2MiwxLjM1MkMyNy4zOTEsMC40OCwyNi4yMzMsMCwyNS4wMDEsMGMtMS4yMzEsMC0yLjM4OSwwLjQ4LTMuMjYsMS4zNTJMMS4zNTIsMjEuNzQgIEMwLjQ5MiwyMi41OTgsMCwyMy43ODYsMCwyNWMwLDEuMjE1LDAuNDkyLDIuNDAzLDEuMzUyLDMuMjYxbDExLjU0MywxMS41NDRMMzQuNjEsNy42OTlMMjguMjYyLDEuMzUyeiIgaWQ9InBhdGgxOCIvPiYjeGE7PC9zdmc+" parent="1" vertex="1">
                    <mxGeometry x="-1266" y="730" width="50" height="50" as="geometry"/>
                </mxCell>
            </root>
        </mxGraphModel>
    </diagram>
</mxfile>